<svg width="17" height="16" viewBox="0 0 17 16" fill="none" xmlns="http://www.w3.org/2000/svg">
<path d="M9.45 0.674C10.934 0.674 12.2127 0.930666 13.286 1.444C14.3687 1.948 15.1947 2.68533 15.764 3.656C16.3427 4.61733 16.632 5.77 16.632 7.114C16.632 8.038 16.4453 8.88267 16.072 9.648C15.708 10.4133 15.218 11.0153 14.602 11.454C13.986 11.8927 13.3233 12.112 12.614 12.112C11.9887 12.112 11.48 11.9673 11.088 11.678C10.7053 11.3887 10.486 10.936 10.43 10.32C10.1127 10.8987 9.716 11.342 9.24 11.65C8.77333 11.958 8.204 12.112 7.532 12.112C6.95333 12.112 6.44 11.9767 5.992 11.706C5.55333 11.426 5.208 11.0387 4.956 10.544C4.71333 10.04 4.592 9.46133 4.592 8.808C4.592 8.60267 4.59667 8.44867 4.606 8.346C4.662 7.54333 4.886 6.82467 5.278 6.19C5.67933 5.546 6.202 5.04667 6.846 4.692C7.49933 4.328 8.218 4.146 9.002 4.146C10.0193 4.146 10.8267 4.42133 11.424 4.972C12.0307 5.51333 12.334 6.25067 12.334 7.184C12.334 7.38 12.32 7.58533 12.292 7.8L12.068 9.312C12.0493 9.48 12.04 9.592 12.04 9.648C12.04 9.91867 12.096 10.11 12.208 10.222C12.3293 10.334 12.5113 10.39 12.754 10.39C13.0807 10.39 13.384 10.2687 13.664 10.026C13.9533 9.774 14.1867 9.41 14.364 8.934C14.5413 8.44867 14.63 7.86533 14.63 7.184C14.63 6.204 14.42 5.34533 14 4.608C13.58 3.87067 12.9593 3.30133 12.138 2.9C11.326 2.48933 10.332 2.284 9.156 2.284C7.77467 2.284 6.58467 2.56867 5.586 3.138C4.59667 3.70733 3.84533 4.48667 3.332 5.476C2.81867 6.46533 2.562 7.57133 2.562 8.794C2.562 10.4927 3.06133 11.804 4.06 12.728C5.068 13.6613 6.53333 14.128 8.456 14.128L8.092 15.738C6.50533 15.7193 5.15667 15.4347 4.046 14.884C2.93533 14.3333 2.09067 13.54 1.512 12.504C0.933333 11.4773 0.644 10.2407 0.644 8.794C0.644 7.17933 1.03133 5.76067 1.806 4.538C2.58067 3.306 3.63533 2.354 4.97 1.682C6.314 1.01 7.80733 0.674 9.45 0.674ZM10.416 7.674C10.416 7.086 10.2573 6.638 9.94 6.33C9.62267 6.01267 9.198 5.854 8.666 5.854C8.274 5.854 7.91 5.96133 7.574 6.176C7.24733 6.38133 6.986 6.68467 6.79 7.086C6.594 7.48733 6.496 7.96333 6.496 8.514C6.496 9.11133 6.65467 9.57333 6.972 9.9C7.29867 10.2267 7.70933 10.39 8.204 10.39C8.58667 10.39 8.946 10.2873 9.282 10.082C9.618 9.86733 9.88867 9.55933 10.094 9.158C10.3087 8.74733 10.416 8.25267 10.416 7.674Z" fill="white"/>
</svg>
