<svg width="14" height="14" viewBox="0 0 14 14" fill="none" xmlns="http://www.w3.org/2000/svg">
<path d="M12.5459 4.06066C13.1317 3.47487 13.1317 2.52513 12.5459 1.93934C11.9601 1.35355 11.0104 1.35355 10.4246 1.93934L12.5459 4.06066ZM1.93929 10.4246C1.3535 11.0104 1.3535 11.9602 1.93929 12.5459C2.52507 13.1317 3.47482 13.1317 4.06061 12.5459L1.93929 10.4246ZM10.4246 1.93934L1.93929 10.4246L4.06061 12.5459L12.5459 4.06066L10.4246 1.93934Z" fill="#8B8CD4"/>
<path d="M10.4246 12.546C11.0104 13.1318 11.9601 13.1318 12.5459 12.546C13.1317 11.9602 13.1317 11.0105 12.5459 10.4247L10.4246 12.546ZM4.06061 1.93941C3.47482 1.35362 2.52507 1.35362 1.93929 1.93941C1.3535 2.5252 1.3535 3.47494 1.93929 4.06073L4.06061 1.93941ZM12.5459 10.4247L4.06061 1.93941L1.93929 4.06073L10.4246 12.546L12.5459 10.4247Z" fill="#8B8CD4"/>
</svg>
