<svg width="14" height="14" viewBox="0 0 14 14" fill="none" xmlns="http://www.w3.org/2000/svg">
<path d="M12.546 4.06066C13.1318 3.47487 13.1318 2.52513 12.546 1.93934C11.9602 1.35355 11.0105 1.35355 10.4247 1.93934L12.546 4.06066ZM1.93941 10.4246C1.35362 11.0104 1.35362 11.9602 1.93941 12.5459C2.5252 13.1317 3.47494 13.1317 4.06073 12.5459L1.93941 10.4246ZM10.4247 1.93934L1.93941 10.4246L4.06073 12.5459L12.546 4.06066L10.4247 1.93934Z" fill="white"/>
<path d="M10.4247 12.5459C11.0105 13.1317 11.9602 13.1317 12.546 12.5459C13.1318 11.9601 13.1318 11.0104 12.546 10.4246L10.4247 12.5459ZM4.06073 1.93929C3.47494 1.3535 2.5252 1.3535 1.93941 1.93929C1.35362 2.52507 1.35362 3.47482 1.93941 4.06061L4.06073 1.93929ZM12.546 10.4246L4.06073 1.93929L1.93941 4.06061L10.4247 12.5459L12.546 10.4246Z" fill="white"/>
</svg>
