<svg width="16" height="16" viewBox="0 0 16 16" fill="none" xmlns="http://www.w3.org/2000/svg">
<path d="M2 14H0.75C0.75 14.6904 1.30964 15.25 2 15.25L2 14ZM14 14V15.25C14.6904 15.25 15.25 14.6904 15.25 14H14ZM15.25 10C15.25 9.30964 14.6904 8.75 14 8.75C13.3096 8.75 12.75 9.30964 12.75 10H15.25ZM3.25 10C3.25 9.30964 2.69036 8.75 2 8.75C1.30964 8.75 0.75 9.30964 0.75 10H3.25ZM2 15.25C2.00756 15.25 2.01514 15.25 2.02273 15.25C2.03033 15.25 2.03794 15.25 2.04556 15.25C2.05319 15.25 2.06083 15.25 2.06849 15.25C2.07614 15.25 2.08382 15.25 2.09151 15.25C2.0992 15.25 2.1069 15.25 2.11462 15.25C2.12234 15.25 2.13008 15.25 2.13783 15.25C2.14559 15.25 2.15335 15.25 2.16114 15.25C2.16892 15.25 2.17672 15.25 2.18454 15.25C2.19235 15.25 2.20018 15.25 2.20803 15.25C2.21587 15.25 2.22374 15.25 2.23161 15.25C2.23949 15.25 2.24738 15.25 2.25529 15.25C2.2632 15.25 2.27112 15.25 2.27906 15.25C2.28699 15.25 2.29495 15.25 2.30291 15.25C2.31088 15.25 2.31886 15.25 2.32686 15.25C2.33486 15.25 2.34287 15.25 2.3509 15.25C2.35893 15.25 2.36697 15.25 2.37503 15.25C2.38309 15.25 2.39116 15.25 2.39924 15.25C2.40733 15.25 2.41543 15.25 2.42355 15.25C2.43166 15.25 2.43979 15.25 2.44794 15.25C2.45608 15.25 2.46424 15.25 2.47242 15.25C2.48059 15.25 2.48878 15.25 2.49698 15.25C2.50518 15.25 2.5134 15.25 2.52163 15.25C2.52986 15.25 2.53811 15.25 2.54637 15.25C2.55463 15.25 2.5629 15.25 2.57119 15.25C2.57948 15.25 2.58778 15.25 2.59609 15.25C2.60441 15.25 2.61274 15.25 2.62108 15.25C2.62942 15.25 2.63778 15.25 2.64615 15.25C2.65452 15.25 2.66291 15.25 2.67131 15.25C2.6797 15.25 2.68812 15.25 2.69654 15.25C2.70497 15.25 2.71341 15.25 2.72186 15.25C2.73031 15.25 2.73878 15.25 2.74726 15.25C2.75573 15.25 2.76423 15.25 2.77273 15.25C2.78124 15.25 2.78976 15.25 2.79829 15.25C2.80682 15.25 2.81537 15.25 2.82393 15.25C2.83249 15.25 2.84106 15.25 2.84964 15.25C2.85823 15.25 2.86683 15.25 2.87544 15.25C2.88405 15.25 2.89267 15.25 2.90131 15.25C2.90995 15.25 2.91859 15.25 2.92726 15.25C2.93592 15.25 2.94459 15.25 2.95328 15.25C2.96197 15.25 2.97067 15.25 2.97938 15.25C2.98809 15.25 2.99682 15.25 3.00556 15.25C3.0143 15.25 3.02305 15.25 3.03181 15.25C3.04057 15.25 3.04935 15.25 3.05813 15.25C3.06692 15.25 3.07572 15.25 3.08453 15.25C3.09334 15.25 3.10217 15.25 3.111 15.25C3.11984 15.25 3.12869 15.25 3.13755 15.25C3.14641 15.25 3.15528 15.25 3.16416 15.25C3.17305 15.25 3.18194 15.25 3.19085 15.25C3.19976 15.25 3.20868 15.25 3.21761 15.25C3.22654 15.25 3.23548 15.25 3.24444 15.25C3.25339 15.25 3.26236 15.25 3.27133 15.25C3.28031 15.25 3.2893 15.25 3.2983 15.25C3.3073 15.25 3.31631 15.25 3.32534 15.25C3.33436 15.25 3.3434 15.25 3.35244 15.25C3.36149 15.25 3.37055 15.25 3.37961 15.25C3.38868 15.25 3.39776 15.25 3.40685 15.25C3.41594 15.25 3.42504 15.25 3.43416 15.25C3.44327 15.25 3.45239 15.25 3.46153 15.25C3.47066 15.25 3.47981 15.25 3.48896 15.25C3.49812 15.25 3.50729 15.25 3.51647 15.25C3.52564 15.25 3.53483 15.25 3.54403 15.25C3.55323 15.25 3.56244 15.25 3.57166 15.25C3.58088 15.25 3.59011 15.25 3.59935 15.25C3.60859 15.25 3.61785 15.25 3.62711 15.25C3.63637 15.25 3.64564 15.25 3.65492 15.25C3.66421 15.25 3.6735 15.25 3.6828 15.25C3.6921 15.25 3.70142 15.25 3.71074 15.25C3.72006 15.25 3.7294 15.25 3.73874 15.25C3.74808 15.25 3.75744 15.25 3.7668 15.25C3.77616 15.25 3.78554 15.25 3.79492 15.25C3.8043 15.25 3.81369 15.25 3.8231 15.25C3.8325 15.25 3.84191 15.25 3.85133 15.25C3.86075 15.25 3.87018 15.25 3.87962 15.25C3.88906 15.25 3.89851 15.25 3.90797 15.25C3.91743 15.25 3.9269 15.25 3.93638 15.25C3.94586 15.25 3.95534 15.25 3.96484 15.25C3.97434 15.25 3.98384 15.25 3.99336 15.25C4.00287 15.25 4.0124 15.25 4.02193 15.25C4.03146 15.25 4.04101 15.25 4.05056 15.25C4.06011 15.25 4.06967 15.25 4.07924 15.25C4.08881 15.25 4.09839 15.25 4.10797 15.25C4.11756 15.25 4.12715 15.25 4.13676 15.25C4.14636 15.25 4.15598 15.25 4.1656 15.25C4.17522 15.25 4.18485 15.25 4.19449 15.25C4.20412 15.25 4.21377 15.25 4.22343 15.25C4.23308 15.25 4.24275 15.25 4.25242 15.25C4.26209 15.25 4.27177 15.25 4.28146 15.25C4.29115 15.25 4.30084 15.25 4.31055 15.25C4.32025 15.25 4.32997 15.25 4.33969 15.25C4.34941 15.25 4.35914 15.25 4.36887 15.25C4.37861 15.25 4.38836 15.25 4.39811 15.25C4.40786 15.25 4.41762 15.25 4.42739 15.25C4.43716 15.25 4.44693 15.25 4.45672 15.25C4.4665 15.25 4.47629 15.25 4.48609 15.25C4.49589 15.25 4.5057 15.25 4.51551 15.25C4.52533 15.25 4.53515 15.25 4.54498 15.25C4.55481 15.25 4.56464 15.25 4.57449 15.25C4.58433 15.25 4.59418 15.25 4.60404 15.25C4.6139 15.25 4.62376 15.25 4.63363 15.25C4.64351 15.25 4.65338 15.25 4.66327 15.25C4.67316 15.25 4.68305 15.25 4.69295 15.25C4.70285 15.25 4.71276 15.25 4.72267 15.25C4.73259 15.25 4.74251 15.25 4.75244 15.25C4.76236 15.25 4.7723 15.25 4.78224 15.25C4.79218 15.25 4.80213 15.25 4.81208 15.25C4.82204 15.25 4.832 15.25 4.84196 15.25C4.85193 15.25 4.86191 15.25 4.87189 15.25C4.88187 15.25 4.89185 15.25 4.90184 15.25C4.91184 15.25 4.92184 15.25 4.93184 15.25C4.94185 15.25 4.95186 15.25 4.96188 15.25C4.97189 15.25 4.98192 15.25 4.99195 15.25C5.00198 15.25 5.01201 15.25 5.02205 15.25C5.03209 15.25 5.04214 15.25 5.05219 15.25C5.06225 15.25 5.07231 15.25 5.08237 15.25C5.09244 15.25 5.10251 15.25 5.11258 15.25C5.12266 15.25 5.13274 15.25 5.14283 15.25C5.15291 15.25 5.16301 15.25 5.17311 15.25C5.1832 15.25 5.19331 15.25 5.20342 15.25C5.21352 15.25 5.22364 15.25 5.23376 15.25C5.24388 15.25 5.254 15.25 5.26413 15.25C5.27426 15.25 5.2844 15.25 5.29454 15.25C5.30468 15.25 5.31482 15.25 5.32497 15.25C5.33512 15.25 5.34528 15.25 5.35544 15.25C5.3656 15.25 5.37577 15.25 5.38594 15.25C5.39611 15.25 5.40628 15.25 5.41646 15.25C5.42664 15.25 5.43682 15.25 5.44701 15.25C5.4572 15.25 5.46739 15.25 5.47759 15.25C5.48779 15.25 5.49799 15.25 5.5082 15.25C5.5184 15.25 5.52862 15.25 5.53883 15.25C5.54905 15.25 5.55927 15.25 5.56949 15.25C5.57972 15.25 5.58994 15.25 5.60018 15.25C5.61041 15.25 5.62065 15.25 5.63089 15.25C5.64113 15.25 5.65137 15.25 5.66162 15.25C5.67187 15.25 5.68212 15.25 5.69238 15.25C5.70263 15.25 5.7129 15.25 5.72316 15.25C5.73342 15.25 5.74369 15.25 5.75396 15.25C5.76424 15.25 5.77451 15.25 5.78479 15.25C5.79507 15.25 5.80535 15.25 5.81564 15.25C5.82592 15.25 5.83621 15.25 5.84651 15.25C5.8568 15.25 5.8671 15.25 5.8774 15.25C5.8877 15.25 5.898 15.25 5.9083 15.25C5.91861 15.25 5.92892 15.25 5.93923 15.25C5.94955 15.25 5.95986 15.25 5.97018 15.25C5.9805 15.25 5.99082 15.25 6.00115 15.25C6.01147 15.25 6.0218 15.25 6.03213 15.25C6.04246 15.25 6.05279 15.25 6.06313 15.25C6.07347 15.25 6.08381 15.25 6.09415 15.25C6.10449 15.25 6.11483 15.25 6.12518 15.25C6.13553 15.25 6.14588 15.25 6.15623 15.25C6.16658 15.25 6.17694 15.25 6.18729 15.25C6.19765 15.25 6.20801 15.25 6.21837 15.25C6.22873 15.25 6.2391 15.25 6.24946 15.25C6.25983 15.25 6.2702 15.25 6.28057 15.25C6.29094 15.25 6.30131 15.25 6.31169 15.25C6.32206 15.25 6.33244 15.25 6.34281 15.25C6.35319 15.25 6.36357 15.25 6.37396 15.25C6.38434 15.25 6.39472 15.25 6.40511 15.25C6.4155 15.25 6.42588 15.25 6.43627 15.25C6.44666 15.25 6.45705 15.25 6.46745 15.25C6.47784 15.25 6.48823 15.25 6.49863 15.25C6.50902 15.25 6.51942 15.25 6.52982 15.25C6.54022 15.25 6.55062 15.25 6.56102 15.25C6.57142 15.25 6.58182 15.25 6.59223 15.25C6.60263 15.25 6.61304 15.25 6.62344 15.25C6.63385 15.25 6.64425 15.25 6.65466 15.25C6.66507 15.25 6.67548 15.25 6.68589 15.25C6.6963 15.25 6.70671 15.25 6.71712 15.25C6.72753 15.25 6.73795 15.25 6.74836 15.25C6.75877 15.25 6.76919 15.25 6.7796 15.25C6.79002 15.25 6.80043 15.25 6.81085 15.25C6.82127 15.25 6.83168 15.25 6.8421 15.25C6.85252 15.25 6.86293 15.25 6.87335 15.25C6.88377 15.25 6.89419 15.25 6.90461 15.25C6.91502 15.25 6.92544 15.25 6.93586 15.25C6.94628 15.25 6.9567 15.25 6.96712 15.25C6.97754 15.25 6.98796 15.25 6.99838 15.25C7.0088 15.25 7.01922 15.25 7.02963 15.25C7.04005 15.25 7.05047 15.25 7.06089 15.25C7.07131 15.25 7.08173 15.25 7.09215 15.25C7.10257 15.25 7.11298 15.25 7.1234 15.25C7.13382 15.25 7.14424 15.25 7.15465 15.25C7.16507 15.25 7.17549 15.25 7.1859 15.25C7.19632 15.25 7.20673 15.25 7.21715 15.25C7.22756 15.25 7.23798 15.25 7.24839 15.25C7.2588 15.25 7.26922 15.25 7.27963 15.25C7.29004 15.25 7.30045 15.25 7.31086 15.25C7.32127 15.25 7.33168 15.25 7.34209 15.25C7.3525 15.25 7.3629 15.25 7.37331 15.25C7.38372 15.25 7.39412 15.25 7.40452 15.25C7.41493 15.25 7.42533 15.25 7.43573 15.25C7.44613 15.25 7.45653 15.25 7.46693 15.25C7.47733 15.25 7.48773 15.25 7.49812 15.25C7.50852 15.25 7.51891 15.25 7.52931 15.25C7.5397 15.25 7.55009 15.25 7.56048 15.25C7.57087 15.25 7.58126 15.25 7.59164 15.25C7.60203 15.25 7.61241 15.25 7.62279 15.25C7.63318 15.25 7.64356 15.25 7.65393 15.25C7.66431 15.25 7.67469 15.25 7.68506 15.25C7.69544 15.25 7.70581 15.25 7.71618 15.25C7.72655 15.25 7.73692 15.25 7.74729 15.25C7.75765 15.25 7.76802 15.25 7.77838 15.25C7.78874 15.25 7.7991 15.25 7.80946 15.25C7.81981 15.25 7.83017 15.25 7.84052 15.25C7.85087 15.25 7.86122 15.25 7.87157 15.25C7.88191 15.25 7.89226 15.25 7.9026 15.25C7.91294 15.25 7.92328 15.25 7.93362 15.25C7.94395 15.25 7.95429 15.25 7.96462 15.25C7.97495 15.25 7.98527 15.25 7.9956 15.25C8.00592 15.25 8.01625 15.25 8.02657 15.25C8.03688 15.25 8.0472 15.25 8.05751 15.25C8.06782 15.25 8.07813 15.25 8.08844 15.25C8.09875 15.25 8.10905 15.25 8.11935 15.25C8.12965 15.25 8.13994 15.25 8.15024 15.25C8.16053 15.25 8.17082 15.25 8.18111 15.25C8.19139 15.25 8.20167 15.25 8.21195 15.25C8.22223 15.25 8.23251 15.25 8.24278 15.25C8.25305 15.25 8.26332 15.25 8.27358 15.25C8.28385 15.25 8.29411 15.25 8.30436 15.25C8.31462 15.25 8.32487 15.25 8.33512 15.25C8.34537 15.25 8.35561 15.25 8.36585 15.25C8.37609 15.25 8.38633 15.25 8.39656 15.25C8.4068 15.25 8.41702 15.25 8.42725 15.25C8.43747 15.25 8.44769 15.25 8.45791 15.25C8.46812 15.25 8.47833 15.25 8.48854 15.25C8.49875 15.25 8.50895 15.25 8.51915 15.25C8.52934 15.25 8.53954 15.25 8.54972 15.25C8.55991 15.25 8.5701 15.25 8.58028 15.25C8.59045 15.25 8.60063 15.25 8.6108 15.25C8.62097 15.25 8.63113 15.25 8.64129 15.25C8.65145 15.25 8.66161 15.25 8.67176 15.25C8.68191 15.25 8.69205 15.25 8.70219 15.25C8.71233 15.25 8.72247 15.25 8.7326 15.25C8.74273 15.25 8.75285 15.25 8.76297 15.25C8.77309 15.25 8.78321 15.25 8.79331 15.25C8.80342 15.25 8.81353 15.25 8.82362 15.25C8.83372 15.25 8.84381 15.25 8.8539 15.25C8.86399 15.25 8.87407 15.25 8.88414 15.25C8.89422 15.25 8.90429 15.25 8.91435 15.25C8.92442 15.25 8.93448 15.25 8.94453 15.25C8.95458 15.25 8.96463 15.25 8.97467 15.25C8.98471 15.25 8.99475 15.25 9.00478 15.25C9.01481 15.25 9.02483 15.25 9.03485 15.25C9.04486 15.25 9.05488 15.25 9.06488 15.25C9.07488 15.25 9.08488 15.25 9.09488 15.25C9.10487 15.25 9.11485 15.25 9.12483 15.25C9.13481 15.25 9.14479 15.25 9.15475 15.25C9.16472 15.25 9.17468 15.25 9.18464 15.25C9.19459 15.25 9.20454 15.25 9.21448 15.25C9.22442 15.25 9.23435 15.25 9.24428 15.25C9.25421 15.25 9.26413 15.25 9.27404 15.25C9.28396 15.25 9.29386 15.25 9.30376 15.25C9.31366 15.25 9.32356 15.25 9.33344 15.25C9.34333 15.25 9.35321 15.25 9.36308 15.25C9.37295 15.25 9.38282 15.25 9.39267 15.25C9.40253 15.25 9.41238 15.25 9.42222 15.25C9.43207 15.25 9.4419 15.25 9.45173 15.25C9.46156 15.25 9.47138 15.25 9.48119 15.25C9.49101 15.25 9.50081 15.25 9.51061 15.25C9.52041 15.25 9.5302 15.25 9.53999 15.25C9.54977 15.25 9.55955 15.25 9.56931 15.25C9.57908 15.25 9.58884 15.25 9.59859 15.25C9.60835 15.25 9.61809 15.25 9.62783 15.25C9.63756 15.25 9.64729 15.25 9.65701 15.25C9.66673 15.25 9.67645 15.25 9.68615 15.25C9.69585 15.25 9.70555 15.25 9.71524 15.25C9.72493 15.25 9.73461 15.25 9.74428 15.25C9.75395 15.25 9.76361 15.25 9.77327 15.25C9.78292 15.25 9.79257 15.25 9.80221 15.25C9.81185 15.25 9.82148 15.25 9.8311 15.25C9.84072 15.25 9.85033 15.25 9.85993 15.25C9.86954 15.25 9.87913 15.25 9.88872 15.25C9.8983 15.25 9.90788 15.25 9.91745 15.25C9.92702 15.25 9.93658 15.25 9.94613 15.25C9.95568 15.25 9.96522 15.25 9.97475 15.25C9.98429 15.25 9.99381 15.25 10.0033 15.25C10.0128 15.25 10.0223 15.25 10.0318 15.25C10.0413 15.25 10.0508 15.25 10.0603 15.25C10.0698 15.25 10.0792 15.25 10.0887 15.25C10.0982 15.25 10.1076 15.25 10.1171 15.25C10.1265 15.25 10.1359 15.25 10.1453 15.25C10.1548 15.25 10.1642 15.25 10.1736 15.25C10.183 15.25 10.1924 15.25 10.2018 15.25C10.2111 15.25 10.2205 15.25 10.2299 15.25C10.2392 15.25 10.2486 15.25 10.2579 15.25C10.2673 15.25 10.2766 15.25 10.2859 15.25C10.2953 15.25 10.3046 15.25 10.3139 15.25C10.3232 15.25 10.3325 15.25 10.3417 15.25C10.351 15.25 10.3603 15.25 10.3696 15.25C10.3788 15.25 10.3881 15.25 10.3973 15.25C10.4066 15.25 10.4158 15.25 10.425 15.25C10.4342 15.25 10.4434 15.25 10.4526 15.25C10.4618 15.25 10.471 15.25 10.4802 15.25C10.4894 15.25 10.4985 15.25 10.5077 15.25C10.5168 15.25 10.526 15.25 10.5351 15.25C10.5443 15.25 10.5534 15.25 10.5625 15.25C10.5716 15.25 10.5807 15.25 10.5898 15.25C10.5989 15.25 10.608 15.25 10.617 15.25C10.6261 15.25 10.6352 15.25 10.6442 15.25C10.6533 15.25 10.6623 15.25 10.6713 15.25C10.6803 15.25 10.6893 15.25 10.6983 15.25C10.7073 15.25 10.7163 15.25 10.7253 15.25C10.7343 15.25 10.7433 15.25 10.7522 15.25C10.7612 15.25 10.7701 15.25 10.779 15.25C10.788 15.25 10.7969 15.25 10.8058 15.25C10.8147 15.25 10.8236 15.25 10.8325 15.25C10.8414 15.25 10.8502 15.25 10.8591 15.25C10.8679 15.25 10.8768 15.25 10.8856 15.25C10.8945 15.25 10.9033 15.25 10.9121 15.25C10.9209 15.25 10.9297 15.25 10.9385 15.25C10.9473 15.25 10.9561 15.25 10.9648 15.25C10.9736 15.25 10.9823 15.25 10.9911 15.25C10.9998 15.25 11.0085 15.25 11.0172 15.25C11.026 15.25 11.0347 15.25 11.0433 15.25C11.052 15.25 11.0607 15.25 11.0694 15.25C11.078 15.25 11.0867 15.25 11.0953 15.25C11.1039 15.25 11.1126 15.25 11.1212 15.25C11.1298 15.25 11.1384 15.25 11.147 15.25C11.1556 15.25 11.1641 15.25 11.1727 15.25C11.1812 15.25 11.1898 15.25 11.1983 15.25C11.2069 15.25 11.2154 15.25 11.2239 15.25C11.2324 15.25 11.2409 15.25 11.2493 15.25C11.2578 15.25 11.2663 15.25 11.2747 15.25C11.2832 15.25 11.2916 15.25 11.3001 15.25C11.3085 15.25 11.3169 15.25 11.3253 15.25C11.3337 15.25 11.3421 15.25 11.3504 15.25C11.3588 15.25 11.3672 15.25 11.3755 15.25C11.3839 15.25 11.3922 15.25 11.4005 15.25C11.4088 15.25 11.4171 15.25 11.4254 15.25C11.4337 15.25 11.442 15.25 11.4502 15.25C11.4585 15.25 11.4667 15.25 11.475 15.25C11.4832 15.25 11.4914 15.25 11.4996 15.25C11.5078 15.25 11.516 15.25 11.5242 15.25C11.5323 15.25 11.5405 15.25 11.5486 15.25C11.5568 15.25 11.5649 15.25 11.573 15.25C11.5811 15.25 11.5892 15.25 11.5973 15.25C11.6054 15.25 11.6135 15.25 11.6215 15.25C11.6296 15.25 11.6376 15.25 11.6457 15.25C11.6537 15.25 11.6617 15.25 11.6697 15.25C11.6777 15.25 11.6857 15.25 11.6937 15.25C11.7016 15.25 11.7096 15.25 11.7175 15.25C11.7254 15.25 11.7334 15.25 11.7413 15.25C11.7492 15.25 11.7571 15.25 11.7649 15.25C11.7728 15.25 11.7807 15.25 11.7885 15.25C11.7964 15.25 11.8042 15.25 11.812 15.25C11.8198 15.25 11.8276 15.25 11.8354 15.25C11.8432 15.25 11.851 15.25 11.8587 15.25C11.8665 15.25 11.8742 15.25 11.8819 15.25C11.8896 15.25 11.8973 15.25 11.905 15.25C11.9127 15.25 11.9204 15.25 11.9281 15.25C11.9357 15.25 11.9434 15.25 11.951 15.25C11.9586 15.25 11.9662 15.25 11.9738 15.25C11.9814 15.25 11.989 15.25 11.9965 15.25C12.0041 15.25 12.0116 15.25 12.0192 15.25C12.0267 15.25 12.0342 15.25 12.0417 15.25C12.0492 15.25 12.0567 15.25 12.0641 15.25C12.0716 15.25 12.079 15.25 12.0865 15.25C12.0939 15.25 12.1013 15.25 12.1087 15.25C12.1161 15.25 12.1235 15.25 12.1308 15.25C12.1382 15.25 12.1456 15.25 12.1529 15.25C12.1602 15.25 12.1675 15.25 12.1748 15.25C12.1821 15.25 12.1894 15.25 12.1966 15.25C12.2039 15.25 12.2112 15.25 12.2184 15.25C12.2256 15.25 12.2328 15.25 12.24 15.25C12.2472 15.25 12.2544 15.25 12.2615 15.25C12.2687 15.25 12.2758 15.25 12.2829 15.25C12.2901 15.25 12.2972 15.25 12.3043 15.25C12.3114 15.25 12.3184 15.25 12.3255 15.25C12.3325 15.25 12.3396 15.25 12.3466 15.25C12.3536 15.25 12.3606 15.25 12.3676 15.25C12.3746 15.25 12.3815 15.25 12.3885 15.25C12.3954 15.25 12.4023 15.25 12.4092 15.25C12.4162 15.25 12.423 15.25 12.4299 15.25C12.4368 15.25 12.4437 15.25 12.4505 15.25C12.4573 15.25 12.4641 15.25 12.4709 15.25C12.4777 15.25 12.4845 15.25 12.4913 15.25C12.4981 15.25 12.5048 15.25 12.5115 15.25C12.5183 15.25 12.525 15.25 12.5317 15.25C12.5383 15.25 12.545 15.25 12.5517 15.25C12.5583 15.25 12.565 15.25 12.5716 15.25C12.5782 15.25 12.5848 15.25 12.5914 15.25C12.5979 15.25 12.6045 15.25 12.611 15.25C12.6176 15.25 12.6241 15.25 12.6306 15.25C12.6371 15.25 12.6436 15.25 12.6501 15.25C12.6565 15.25 12.663 15.25 12.6694 15.25C12.6758 15.25 12.6822 15.25 12.6886 15.25C12.695 15.25 12.7014 15.25 12.7077 15.25C12.7141 15.25 12.7204 15.25 12.7267 15.25C12.733 15.25 12.7393 15.25 12.7456 15.25C12.7519 15.25 12.7581 15.25 12.7643 15.25C12.7706 15.25 12.7768 15.25 12.783 15.25C12.7892 15.25 12.7953 15.25 12.8015 15.25C12.8076 15.25 12.8138 15.25 12.8199 15.25C12.826 15.25 12.8321 15.25 12.8382 15.25C12.8442 15.25 12.8503 15.25 12.8563 15.25C12.8624 15.25 12.8684 15.25 12.8744 15.25C12.8804 15.25 12.8863 15.25 12.8923 15.25C12.8982 15.25 12.9042 15.25 12.9101 15.25C12.916 15.25 12.9219 15.25 12.9278 15.25C12.9336 15.25 12.9395 15.25 12.9453 15.25C12.9511 15.25 12.9569 15.25 12.9627 15.25C12.9685 15.25 12.9743 15.25 12.98 15.25C12.9858 15.25 12.9915 15.25 12.9972 15.25C13.0029 15.25 13.0086 15.25 13.0143 15.25C13.0199 15.25 13.0256 15.25 13.0312 15.25C13.0368 15.25 13.0424 15.25 13.048 15.25C13.0536 15.25 13.0591 15.25 13.0647 15.25C13.0702 15.25 13.0757 15.25 13.0812 15.25C13.0867 15.25 13.0922 15.25 13.0976 15.25C13.1031 15.25 13.1085 15.25 13.1139 15.25C13.1193 15.25 13.1247 15.25 13.1301 15.25C13.1355 15.25 13.1408 15.25 13.1461 15.25C13.1514 15.25 13.1567 15.25 13.162 15.25C13.1673 15.25 13.1726 15.25 13.1778 15.25C13.183 15.25 13.1882 15.25 13.1934 15.25C13.1986 15.25 13.2038 15.25 13.2089 15.25C13.2141 15.25 13.2192 15.25 13.2243 15.25C13.2294 15.25 13.2345 15.25 13.2396 15.25C13.2446 15.25 13.2497 15.25 13.2547 15.25C13.2597 15.25 13.2647 15.25 13.2696 15.25C13.2746 15.25 13.2796 15.25 13.2845 15.25C13.2894 15.25 13.2943 15.25 13.2992 15.25C13.3041 15.25 13.3089 15.25 13.3138 15.25C13.3186 15.25 13.3234 15.25 13.3282 15.25C13.333 15.25 13.3378 15.25 13.3425 15.25C13.3472 15.25 13.352 15.25 13.3567 15.25C13.3614 15.25 13.366 15.25 13.3707 15.25C13.3753 15.25 13.38 15.25 13.3846 15.25C13.3892 15.25 13.3937 15.25 13.3983 15.25C13.4029 15.25 13.4074 15.25 13.4119 15.25C13.4164 15.25 13.4209 15.25 13.4254 15.25C13.4298 15.25 13.4343 15.25 13.4387 15.25C13.4431 15.25 13.4475 15.25 13.4519 15.25C13.4563 15.25 13.4606 15.25 13.4649 15.25C13.4692 15.25 13.4735 15.25 13.4778 15.25C13.4821 15.25 13.4864 15.25 13.4906 15.25C13.4948 15.25 13.499 15.25 13.5032 15.25C13.5074 15.25 13.5115 15.25 13.5157 15.25C13.5198 15.25 13.5239 15.25 13.528 15.25C13.5321 15.25 13.5361 15.25 13.5402 15.25C13.5442 15.25 13.5482 15.25 13.5522 15.25C13.5562 15.25 13.5601 15.25 13.5641 15.25C13.568 15.25 13.5719 15.25 13.5758 15.25C13.5797 15.25 13.5836 15.25 13.5874 15.25C13.5913 15.25 13.5951 15.25 13.5989 15.25C13.6027 15.25 13.6064 15.25 13.6102 15.25C13.6139 15.25 13.6176 15.25 13.6213 15.25C13.625 15.25 13.6287 15.25 13.6323 15.25C13.636 15.25 13.6396 15.25 13.6432 15.25C13.6467 15.25 13.6503 15.25 13.6539 15.25C13.6574 15.25 13.6609 15.25 13.6644 15.25C13.6679 15.25 13.6714 15.25 13.6748 15.25C13.6782 15.25 13.6817 15.25 13.685 15.25C13.6884 15.25 13.6918 15.25 13.6951 15.25C13.6985 15.25 13.7018 15.25 13.7051 15.25C13.7084 15.25 13.7116 15.25 13.7148 15.25C13.7181 15.25 13.7213 15.25 13.7245 15.25C13.7277 15.25 13.7308 15.25 13.734 15.25C13.7371 15.25 13.7402 15.25 13.7433 15.25C13.7463 15.25 13.7494 15.25 13.7524 15.25C13.7555 15.25 13.7585 15.25 13.7614 15.25C13.7644 15.25 13.7674 15.25 13.7703 15.25C13.7732 15.25 13.7761 15.25 13.779 15.25C13.7818 15.25 13.7847 15.25 13.7875 15.25C13.7903 15.25 13.7931 15.25 13.7959 15.25C13.7986 15.25 13.8014 15.25 13.8041 15.25C13.8068 15.25 13.8095 15.25 13.8121 15.25C13.8148 15.25 13.8174 15.25 13.82 15.25C13.8226 15.25 13.8252 15.25 13.8278 15.25C13.8303 15.25 13.8328 15.25 13.8353 15.25C13.8378 15.25 13.8403 15.25 13.8427 15.25C13.8452 15.25 13.8476 15.25 13.85 15.25C13.8524 15.25 13.8547 15.25 13.8571 15.25C13.8594 15.25 13.8617 15.25 13.864 15.25C13.8663 15.25 13.8685 15.25 13.8707 15.25C13.873 15.25 13.8752 15.25 13.8773 15.25C13.8795 15.25 13.8816 15.25 13.8837 15.25C13.8859 15.25 13.8879 15.25 13.89 15.25C13.8921 15.25 13.8941 15.25 13.8961 15.25C13.8981 15.25 13.9001 15.25 13.902 15.25C13.904 15.25 13.9059 15.25 13.9078 15.25C13.9097 15.25 13.9115 15.25 13.9134 15.25C13.9152 15.25 13.917 15.25 13.9188 15.25C13.9205 15.25 13.9223 15.25 13.924 15.25C13.9257 15.25 13.9274 15.25 13.9291 15.25C13.9308 15.25 13.9324 15.25 13.934 15.25C13.9356 15.25 13.9372 15.25 13.9387 15.25C13.9403 15.25 13.9418 15.25 13.9433 15.25C13.9448 15.25 13.9463 15.25 13.9477 15.25C13.9491 15.25 13.9505 15.25 13.9519 15.25C13.9533 15.25 13.9546 15.25 13.956 15.25C13.9573 15.25 13.9586 15.25 13.9598 15.25C13.9611 15.25 13.9623 15.25 13.9635 15.25C13.9647 15.25 13.9659 15.25 13.9671 15.25C13.9682 15.25 13.9693 15.25 13.9704 15.25C13.9715 15.25 13.9725 15.25 13.9736 15.25C13.9746 15.25 13.9756 15.25 13.9766 15.25C13.9775 15.25 13.9785 15.25 13.9794 15.25C13.9803 15.25 13.9812 15.25 13.982 15.25C13.9829 15.25 13.9837 15.25 13.9845 15.25C13.9853 15.25 13.986 15.25 13.9868 15.25C13.9875 15.25 13.9882 15.25 13.9889 15.25C13.9895 15.25 13.9902 15.25 13.9908 15.25C13.9914 15.25 13.992 15.25 13.9925 15.25C13.9931 15.25 13.9936 15.25 13.9941 15.25C13.9946 15.25 13.995 15.25 13.9955 15.25C13.9959 15.25 13.9963 15.25 13.9967 15.25C13.997 15.25 13.9974 15.25 13.9977 15.25C13.998 15.25 13.9983 15.25 13.9985 15.25C13.9988 15.25 13.999 15.25 13.9992 15.25C13.9994 15.25 13.9995 15.25 13.9996 15.25C13.9998 15.25 13.9998 15.25 13.9999 15.25C14 15.25 14 15.25 14 14C14 12.75 14 12.75 13.9999 12.75C13.9998 12.75 13.9998 12.75 13.9996 12.75C13.9995 12.75 13.9994 12.75 13.9992 12.75C13.999 12.75 13.9988 12.75 13.9985 12.75C13.9983 12.75 13.998 12.75 13.9977 12.75C13.9974 12.75 13.997 12.75 13.9967 12.75C13.9963 12.75 13.9959 12.75 13.9955 12.75C13.995 12.75 13.9946 12.75 13.9941 12.75C13.9936 12.75 13.9931 12.75 13.9925 12.75C13.992 12.75 13.9914 12.75 13.9908 12.75C13.9902 12.75 13.9895 12.75 13.9889 12.75C13.9882 12.75 13.9875 12.75 13.9868 12.75C13.986 12.75 13.9853 12.75 13.9845 12.75C13.9837 12.75 13.9829 12.75 13.982 12.75C13.9812 12.75 13.9803 12.75 13.9794 12.75C13.9785 12.75 13.9775 12.75 13.9766 12.75C13.9756 12.75 13.9746 12.75 13.9736 12.75C13.9725 12.75 13.9715 12.75 13.9704 12.75C13.9693 12.75 13.9682 12.75 13.9671 12.75C13.9659 12.75 13.9647 12.75 13.9635 12.75C13.9623 12.75 13.9611 12.75 13.9598 12.75C13.9586 12.75 13.9573 12.75 13.956 12.75C13.9546 12.75 13.9533 12.75 13.9519 12.75C13.9505 12.75 13.9491 12.75 13.9477 12.75C13.9463 12.75 13.9448 12.75 13.9433 12.75C13.9418 12.75 13.9403 12.75 13.9387 12.75C13.9372 12.75 13.9356 12.75 13.934 12.75C13.9324 12.75 13.9308 12.75 13.9291 12.75C13.9274 12.75 13.9257 12.75 13.924 12.75C13.9223 12.75 13.9205 12.75 13.9188 12.75C13.917 12.75 13.9152 12.75 13.9134 12.75C13.9115 12.75 13.9097 12.75 13.9078 12.75C13.9059 12.75 13.904 12.75 13.902 12.75C13.9001 12.75 13.8981 12.75 13.8961 12.75C13.8941 12.75 13.8921 12.75 13.89 12.75C13.8879 12.75 13.8859 12.75 13.8837 12.75C13.8816 12.75 13.8795 12.75 13.8773 12.75C13.8752 12.75 13.873 12.75 13.8707 12.75C13.8685 12.75 13.8663 12.75 13.864 12.75C13.8617 12.75 13.8594 12.75 13.8571 12.75C13.8547 12.75 13.8524 12.75 13.85 12.75C13.8476 12.75 13.8452 12.75 13.8427 12.75C13.8403 12.75 13.8378 12.75 13.8353 12.75C13.8328 12.75 13.8303 12.75 13.8278 12.75C13.8252 12.75 13.8226 12.75 13.82 12.75C13.8174 12.75 13.8148 12.75 13.8121 12.75C13.8095 12.75 13.8068 12.75 13.8041 12.75C13.8014 12.75 13.7986 12.75 13.7959 12.75C13.7931 12.75 13.7903 12.75 13.7875 12.75C13.7847 12.75 13.7818 12.75 13.779 12.75C13.7761 12.75 13.7732 12.75 13.7703 12.75C13.7674 12.75 13.7644 12.75 13.7614 12.75C13.7585 12.75 13.7555 12.75 13.7524 12.75C13.7494 12.75 13.7463 12.75 13.7433 12.75C13.7402 12.75 13.7371 12.75 13.734 12.75C13.7308 12.75 13.7277 12.75 13.7245 12.75C13.7213 12.75 13.7181 12.75 13.7148 12.75C13.7116 12.75 13.7084 12.75 13.7051 12.75C13.7018 12.75 13.6985 12.75 13.6951 12.75C13.6918 12.75 13.6884 12.75 13.685 12.75C13.6817 12.75 13.6782 12.75 13.6748 12.75C13.6714 12.75 13.6679 12.75 13.6644 12.75C13.6609 12.75 13.6574 12.75 13.6539 12.75C13.6503 12.75 13.6467 12.75 13.6432 12.75C13.6396 12.75 13.636 12.75 13.6323 12.75C13.6287 12.75 13.625 12.75 13.6213 12.75C13.6176 12.75 13.6139 12.75 13.6102 12.75C13.6064 12.75 13.6027 12.75 13.5989 12.75C13.5951 12.75 13.5913 12.75 13.5874 12.75C13.5836 12.75 13.5797 12.75 13.5758 12.75C13.5719 12.75 13.568 12.75 13.5641 12.75C13.5601 12.75 13.5562 12.75 13.5522 12.75C13.5482 12.75 13.5442 12.75 13.5402 12.75C13.5361 12.75 13.5321 12.75 13.528 12.75C13.5239 12.75 13.5198 12.75 13.5157 12.75C13.5115 12.75 13.5074 12.75 13.5032 12.75C13.499 12.75 13.4948 12.75 13.4906 12.75C13.4864 12.75 13.4821 12.75 13.4778 12.75C13.4735 12.75 13.4692 12.75 13.4649 12.75C13.4606 12.75 13.4563 12.75 13.4519 12.75C13.4475 12.75 13.4431 12.75 13.4387 12.75C13.4343 12.75 13.4298 12.75 13.4254 12.75C13.4209 12.75 13.4164 12.75 13.4119 12.75C13.4074 12.75 13.4029 12.75 13.3983 12.75C13.3937 12.75 13.3892 12.75 13.3846 12.75C13.38 12.75 13.3753 12.75 13.3707 12.75C13.366 12.75 13.3614 12.75 13.3567 12.75C13.352 12.75 13.3472 12.75 13.3425 12.75C13.3378 12.75 13.333 12.75 13.3282 12.75C13.3234 12.75 13.3186 12.75 13.3138 12.75C13.3089 12.75 13.3041 12.75 13.2992 12.75C13.2943 12.75 13.2894 12.75 13.2845 12.75C13.2796 12.75 13.2746 12.75 13.2696 12.75C13.2647 12.75 13.2597 12.75 13.2547 12.75C13.2497 12.75 13.2446 12.75 13.2396 12.75C13.2345 12.75 13.2294 12.75 13.2243 12.75C13.2192 12.75 13.2141 12.75 13.2089 12.75C13.2038 12.75 13.1986 12.75 13.1934 12.75C13.1882 12.75 13.183 12.75 13.1778 12.75C13.1726 12.75 13.1673 12.75 13.162 12.75C13.1567 12.75 13.1514 12.75 13.1461 12.75C13.1408 12.75 13.1355 12.75 13.1301 12.75C13.1247 12.75 13.1193 12.75 13.1139 12.75C13.1085 12.75 13.1031 12.75 13.0976 12.75C13.0922 12.75 13.0867 12.75 13.0812 12.75C13.0757 12.75 13.0702 12.75 13.0647 12.75C13.0591 12.75 13.0536 12.75 13.048 12.75C13.0424 12.75 13.0368 12.75 13.0312 12.75C13.0256 12.75 13.0199 12.75 13.0143 12.75C13.0086 12.75 13.0029 12.75 12.9972 12.75C12.9915 12.75 12.9858 12.75 12.98 12.75C12.9743 12.75 12.9685 12.75 12.9627 12.75C12.9569 12.75 12.9511 12.75 12.9453 12.75C12.9395 12.75 12.9336 12.75 12.9278 12.75C12.9219 12.75 12.916 12.75 12.9101 12.75C12.9042 12.75 12.8982 12.75 12.8923 12.75C12.8863 12.75 12.8804 12.75 12.8744 12.75C12.8684 12.75 12.8624 12.75 12.8563 12.75C12.8503 12.75 12.8442 12.75 12.8382 12.75C12.8321 12.75 12.826 12.75 12.8199 12.75C12.8138 12.75 12.8076 12.75 12.8015 12.75C12.7953 12.75 12.7892 12.75 12.783 12.75C12.7768 12.75 12.7706 12.75 12.7643 12.75C12.7581 12.75 12.7519 12.75 12.7456 12.75C12.7393 12.75 12.733 12.75 12.7267 12.75C12.7204 12.75 12.7141 12.75 12.7077 12.75C12.7014 12.75 12.695 12.75 12.6886 12.75C12.6822 12.75 12.6758 12.75 12.6694 12.75C12.663 12.75 12.6565 12.75 12.6501 12.75C12.6436 12.75 12.6371 12.75 12.6306 12.75C12.6241 12.75 12.6176 12.75 12.611 12.75C12.6045 12.75 12.5979 12.75 12.5914 12.75C12.5848 12.75 12.5782 12.75 12.5716 12.75C12.565 12.75 12.5583 12.75 12.5517 12.75C12.545 12.75 12.5383 12.75 12.5317 12.75C12.525 12.75 12.5183 12.75 12.5115 12.75C12.5048 12.75 12.4981 12.75 12.4913 12.75C12.4845 12.75 12.4777 12.75 12.4709 12.75C12.4641 12.75 12.4573 12.75 12.4505 12.75C12.4437 12.75 12.4368 12.75 12.4299 12.75C12.423 12.75 12.4162 12.75 12.4092 12.75C12.4023 12.75 12.3954 12.75 12.3885 12.75C12.3815 12.75 12.3746 12.75 12.3676 12.75C12.3606 12.75 12.3536 12.75 12.3466 12.75C12.3396 12.75 12.3325 12.75 12.3255 12.75C12.3184 12.75 12.3114 12.75 12.3043 12.75C12.2972 12.75 12.2901 12.75 12.2829 12.75C12.2758 12.75 12.2687 12.75 12.2615 12.75C12.2544 12.75 12.2472 12.75 12.24 12.75C12.2328 12.75 12.2256 12.75 12.2184 12.75C12.2112 12.75 12.2039 12.75 12.1966 12.75C12.1894 12.75 12.1821 12.75 12.1748 12.75C12.1675 12.75 12.1602 12.75 12.1529 12.75C12.1456 12.75 12.1382 12.75 12.1308 12.75C12.1235 12.75 12.1161 12.75 12.1087 12.75C12.1013 12.75 12.0939 12.75 12.0865 12.75C12.079 12.75 12.0716 12.75 12.0641 12.75C12.0567 12.75 12.0492 12.75 12.0417 12.75C12.0342 12.75 12.0267 12.75 12.0192 12.75C12.0116 12.75 12.0041 12.75 11.9965 12.75C11.989 12.75 11.9814 12.75 11.9738 12.75C11.9662 12.75 11.9586 12.75 11.951 12.75C11.9434 12.75 11.9357 12.75 11.9281 12.75C11.9204 12.75 11.9127 12.75 11.905 12.75C11.8973 12.75 11.8896 12.75 11.8819 12.75C11.8742 12.75 11.8665 12.75 11.8587 12.75C11.851 12.75 11.8432 12.75 11.8354 12.75C11.8276 12.75 11.8198 12.75 11.812 12.75C11.8042 12.75 11.7964 12.75 11.7885 12.75C11.7807 12.75 11.7728 12.75 11.7649 12.75C11.7571 12.75 11.7492 12.75 11.7413 12.75C11.7334 12.75 11.7254 12.75 11.7175 12.75C11.7096 12.75 11.7016 12.75 11.6937 12.75C11.6857 12.75 11.6777 12.75 11.6697 12.75C11.6617 12.75 11.6537 12.75 11.6457 12.75C11.6376 12.75 11.6296 12.75 11.6215 12.75C11.6135 12.75 11.6054 12.75 11.5973 12.75C11.5892 12.75 11.5811 12.75 11.573 12.75C11.5649 12.75 11.5568 12.75 11.5486 12.75C11.5405 12.75 11.5323 12.75 11.5242 12.75C11.516 12.75 11.5078 12.75 11.4996 12.75C11.4914 12.75 11.4832 12.75 11.475 12.75C11.4667 12.75 11.4585 12.75 11.4502 12.75C11.442 12.75 11.4337 12.75 11.4254 12.75C11.4171 12.75 11.4088 12.75 11.4005 12.75C11.3922 12.75 11.3839 12.75 11.3755 12.75C11.3672 12.75 11.3588 12.75 11.3504 12.75C11.3421 12.75 11.3337 12.75 11.3253 12.75C11.3169 12.75 11.3085 12.75 11.3001 12.75C11.2916 12.75 11.2832 12.75 11.2747 12.75C11.2663 12.75 11.2578 12.75 11.2493 12.75C11.2409 12.75 11.2324 12.75 11.2239 12.75C11.2154 12.75 11.2069 12.75 11.1983 12.75C11.1898 12.75 11.1812 12.75 11.1727 12.75C11.1641 12.75 11.1556 12.75 11.147 12.75C11.1384 12.75 11.1298 12.75 11.1212 12.75C11.1126 12.75 11.1039 12.75 11.0953 12.75C11.0867 12.75 11.078 12.75 11.0694 12.75C11.0607 12.75 11.052 12.75 11.0433 12.75C11.0347 12.75 11.026 12.75 11.0172 12.75C11.0085 12.75 10.9998 12.75 10.9911 12.75C10.9823 12.75 10.9736 12.75 10.9648 12.75C10.9561 12.75 10.9473 12.75 10.9385 12.75C10.9297 12.75 10.9209 12.75 10.9121 12.75C10.9033 12.75 10.8945 12.75 10.8856 12.75C10.8768 12.75 10.8679 12.75 10.8591 12.75C10.8502 12.75 10.8414 12.75 10.8325 12.75C10.8236 12.75 10.8147 12.75 10.8058 12.75C10.7969 12.75 10.788 12.75 10.779 12.75C10.7701 12.75 10.7612 12.75 10.7522 12.75C10.7433 12.75 10.7343 12.75 10.7253 12.75C10.7163 12.75 10.7073 12.75 10.6983 12.75C10.6893 12.75 10.6803 12.75 10.6713 12.75C10.6623 12.75 10.6533 12.75 10.6442 12.75C10.6352 12.75 10.6261 12.75 10.617 12.75C10.608 12.75 10.5989 12.75 10.5898 12.75C10.5807 12.75 10.5716 12.75 10.5625 12.75C10.5534 12.75 10.5443 12.75 10.5351 12.75C10.526 12.75 10.5168 12.75 10.5077 12.75C10.4985 12.75 10.4894 12.75 10.4802 12.75C10.471 12.75 10.4618 12.75 10.4526 12.75C10.4434 12.75 10.4342 12.75 10.425 12.75C10.4158 12.75 10.4066 12.75 10.3973 12.75C10.3881 12.75 10.3788 12.75 10.3696 12.75C10.3603 12.75 10.351 12.75 10.3417 12.75C10.3325 12.75 10.3232 12.75 10.3139 12.75C10.3046 12.75 10.2953 12.75 10.2859 12.75C10.2766 12.75 10.2673 12.75 10.2579 12.75C10.2486 12.75 10.2392 12.75 10.2299 12.75C10.2205 12.75 10.2111 12.75 10.2018 12.75C10.1924 12.75 10.183 12.75 10.1736 12.75C10.1642 12.75 10.1548 12.75 10.1453 12.75C10.1359 12.75 10.1265 12.75 10.1171 12.75C10.1076 12.75 10.0982 12.75 10.0887 12.75C10.0792 12.75 10.0698 12.75 10.0603 12.75C10.0508 12.75 10.0413 12.75 10.0318 12.75C10.0223 12.75 10.0128 12.75 10.0033 12.75C9.99381 12.75 9.98429 12.75 9.97475 12.75C9.96522 12.75 9.95568 12.75 9.94613 12.75C9.93658 12.75 9.92702 12.75 9.91745 12.75C9.90788 12.75 9.8983 12.75 9.88872 12.75C9.87913 12.75 9.86954 12.75 9.85993 12.75C9.85033 12.75 9.84072 12.75 9.8311 12.75C9.82148 12.75 9.81185 12.75 9.80221 12.75C9.79257 12.75 9.78292 12.75 9.77327 12.75C9.76361 12.75 9.75395 12.75 9.74428 12.75C9.73461 12.75 9.72493 12.75 9.71524 12.75C9.70555 12.75 9.69585 12.75 9.68615 12.75C9.67645 12.75 9.66673 12.75 9.65701 12.75C9.64729 12.75 9.63756 12.75 9.62783 12.75C9.61809 12.75 9.60835 12.75 9.59859 12.75C9.58884 12.75 9.57908 12.75 9.56931 12.75C9.55955 12.75 9.54977 12.75 9.53999 12.75C9.5302 12.75 9.52041 12.75 9.51061 12.75C9.50081 12.75 9.49101 12.75 9.48119 12.75C9.47138 12.75 9.46156 12.75 9.45173 12.75C9.4419 12.75 9.43207 12.75 9.42222 12.75C9.41238 12.75 9.40253 12.75 9.39267 12.75C9.38282 12.75 9.37295 12.75 9.36308 12.75C9.35321 12.75 9.34333 12.75 9.33344 12.75C9.32356 12.75 9.31366 12.75 9.30376 12.75C9.29386 12.75 9.28396 12.75 9.27404 12.75C9.26413 12.75 9.25421 12.75 9.24428 12.75C9.23435 12.75 9.22442 12.75 9.21448 12.75C9.20454 12.75 9.19459 12.75 9.18464 12.75C9.17468 12.75 9.16472 12.75 9.15475 12.75C9.14479 12.75 9.13481 12.75 9.12483 12.75C9.11485 12.75 9.10487 12.75 9.09488 12.75C9.08488 12.75 9.07488 12.75 9.06488 12.75C9.05488 12.75 9.04486 12.75 9.03485 12.75C9.02483 12.75 9.01481 12.75 9.00478 12.75C8.99475 12.75 8.98471 12.75 8.97467 12.75C8.96463 12.75 8.95458 12.75 8.94453 12.75C8.93448 12.75 8.92442 12.75 8.91435 12.75C8.90429 12.75 8.89422 12.75 8.88414 12.75C8.87407 12.75 8.86399 12.75 8.8539 12.75C8.84381 12.75 8.83372 12.75 8.82362 12.75C8.81353 12.75 8.80342 12.75 8.79331 12.75C8.78321 12.75 8.77309 12.75 8.76297 12.75C8.75285 12.75 8.74273 12.75 8.7326 12.75C8.72247 12.75 8.71233 12.75 8.70219 12.75C8.69205 12.75 8.68191 12.75 8.67176 12.75C8.66161 12.75 8.65145 12.75 8.64129 12.75C8.63113 12.75 8.62097 12.75 8.6108 12.75C8.60063 12.75 8.59045 12.75 8.58028 12.75C8.5701 12.75 8.55991 12.75 8.54972 12.75C8.53954 12.75 8.52934 12.75 8.51915 12.75C8.50895 12.75 8.49875 12.75 8.48854 12.75C8.47833 12.75 8.46812 12.75 8.45791 12.75C8.44769 12.75 8.43747 12.75 8.42725 12.75C8.41702 12.75 8.4068 12.75 8.39656 12.75C8.38633 12.75 8.37609 12.75 8.36585 12.75C8.35561 12.75 8.34537 12.75 8.33512 12.75C8.32487 12.75 8.31462 12.75 8.30436 12.75C8.29411 12.75 8.28385 12.75 8.27358 12.75C8.26332 12.75 8.25305 12.75 8.24278 12.75C8.23251 12.75 8.22223 12.75 8.21195 12.75C8.20167 12.75 8.19139 12.75 8.18111 12.75C8.17082 12.75 8.16053 12.75 8.15024 12.75C8.13994 12.75 8.12965 12.75 8.11935 12.75C8.10905 12.75 8.09875 12.75 8.08844 12.75C8.07813 12.75 8.06782 12.75 8.05751 12.75C8.0472 12.75 8.03688 12.75 8.02657 12.75C8.01625 12.75 8.00592 12.75 7.9956 12.75C7.98527 12.75 7.97495 12.75 7.96462 12.75C7.95429 12.75 7.94395 12.75 7.93362 12.75C7.92328 12.75 7.91294 12.75 7.9026 12.75C7.89226 12.75 7.88191 12.75 7.87157 12.75C7.86122 12.75 7.85087 12.75 7.84052 12.75C7.83017 12.75 7.81981 12.75 7.80946 12.75C7.7991 12.75 7.78874 12.75 7.77838 12.75C7.76802 12.75 7.75765 12.75 7.74729 12.75C7.73692 12.75 7.72655 12.75 7.71618 12.75C7.70581 12.75 7.69544 12.75 7.68506 12.75C7.67469 12.75 7.66431 12.75 7.65393 12.75C7.64356 12.75 7.63318 12.75 7.62279 12.75C7.61241 12.75 7.60203 12.75 7.59164 12.75C7.58126 12.75 7.57087 12.75 7.56048 12.75C7.55009 12.75 7.5397 12.75 7.52931 12.75C7.51891 12.75 7.50852 12.75 7.49812 12.75C7.48773 12.75 7.47733 12.75 7.46693 12.75C7.45653 12.75 7.44613 12.75 7.43573 12.75C7.42533 12.75 7.41493 12.75 7.40452 12.75C7.39412 12.75 7.38372 12.75 7.37331 12.75C7.3629 12.75 7.3525 12.75 7.34209 12.75C7.33168 12.75 7.32127 12.75 7.31086 12.75C7.30045 12.75 7.29004 12.75 7.27963 12.75C7.26922 12.75 7.2588 12.75 7.24839 12.75C7.23798 12.75 7.22756 12.75 7.21715 12.75C7.20673 12.75 7.19632 12.75 7.1859 12.75C7.17549 12.75 7.16507 12.75 7.15465 12.75C7.14424 12.75 7.13382 12.75 7.1234 12.75C7.11298 12.75 7.10257 12.75 7.09215 12.75C7.08173 12.75 7.07131 12.75 7.06089 12.75C7.05047 12.75 7.04005 12.75 7.02963 12.75C7.01922 12.75 7.0088 12.75 6.99838 12.75C6.98796 12.75 6.97754 12.75 6.96712 12.75C6.9567 12.75 6.94628 12.75 6.93586 12.75C6.92544 12.75 6.91502 12.75 6.90461 12.75C6.89419 12.75 6.88377 12.75 6.87335 12.75C6.86293 12.75 6.85252 12.75 6.8421 12.75C6.83168 12.75 6.82127 12.75 6.81085 12.75C6.80043 12.75 6.79002 12.75 6.7796 12.75C6.76919 12.75 6.75877 12.75 6.74836 12.75C6.73795 12.75 6.72753 12.75 6.71712 12.75C6.70671 12.75 6.6963 12.75 6.68589 12.75C6.67548 12.75 6.66507 12.75 6.65466 12.75C6.64425 12.75 6.63385 12.75 6.62344 12.75C6.61304 12.75 6.60263 12.75 6.59223 12.75C6.58182 12.75 6.57142 12.75 6.56102 12.75C6.55062 12.75 6.54022 12.75 6.52982 12.75C6.51942 12.75 6.50902 12.75 6.49863 12.75C6.48823 12.75 6.47784 12.75 6.46745 12.75C6.45705 12.75 6.44666 12.75 6.43627 12.75C6.42588 12.75 6.4155 12.75 6.40511 12.75C6.39472 12.75 6.38434 12.75 6.37396 12.75C6.36357 12.75 6.35319 12.75 6.34281 12.75C6.33244 12.75 6.32206 12.75 6.31169 12.75C6.30131 12.75 6.29094 12.75 6.28057 12.75C6.2702 12.75 6.25983 12.75 6.24946 12.75C6.2391 12.75 6.22873 12.75 6.21837 12.75C6.20801 12.75 6.19765 12.75 6.18729 12.75C6.17694 12.75 6.16658 12.75 6.15623 12.75C6.14588 12.75 6.13553 12.75 6.12518 12.75C6.11483 12.75 6.10449 12.75 6.09415 12.75C6.08381 12.75 6.07347 12.75 6.06313 12.75C6.05279 12.75 6.04246 12.75 6.03213 12.75C6.0218 12.75 6.01147 12.75 6.00115 12.75C5.99082 12.75 5.9805 12.75 5.97018 12.75C5.95986 12.75 5.94955 12.75 5.93923 12.75C5.92892 12.75 5.91861 12.75 5.9083 12.75C5.898 12.75 5.8877 12.75 5.8774 12.75C5.8671 12.75 5.8568 12.75 5.84651 12.75C5.83621 12.75 5.82592 12.75 5.81564 12.75C5.80535 12.75 5.79507 12.75 5.78479 12.75C5.77451 12.75 5.76424 12.75 5.75396 12.75C5.74369 12.75 5.73342 12.75 5.72316 12.75C5.7129 12.75 5.70263 12.75 5.69238 12.75C5.68212 12.75 5.67187 12.75 5.66162 12.75C5.65137 12.75 5.64113 12.75 5.63089 12.75C5.62065 12.75 5.61041 12.75 5.60018 12.75C5.58994 12.75 5.57972 12.75 5.56949 12.75C5.55927 12.75 5.54905 12.75 5.53883 12.75C5.52862 12.75 5.5184 12.75 5.5082 12.75C5.49799 12.75 5.48779 12.75 5.47759 12.75C5.46739 12.75 5.4572 12.75 5.44701 12.75C5.43682 12.75 5.42664 12.75 5.41646 12.75C5.40628 12.75 5.39611 12.75 5.38594 12.75C5.37577 12.75 5.3656 12.75 5.35544 12.75C5.34528 12.75 5.33512 12.75 5.32497 12.75C5.31482 12.75 5.30468 12.75 5.29454 12.75C5.2844 12.75 5.27426 12.75 5.26413 12.75C5.254 12.75 5.24388 12.75 5.23376 12.75C5.22364 12.75 5.21352 12.75 5.20342 12.75C5.19331 12.75 5.1832 12.75 5.17311 12.75C5.16301 12.75 5.15291 12.75 5.14283 12.75C5.13274 12.75 5.12266 12.75 5.11258 12.75C5.10251 12.75 5.09244 12.75 5.08237 12.75C5.07231 12.75 5.06225 12.75 5.05219 12.75C5.04214 12.75 5.03209 12.75 5.02205 12.75C5.01201 12.75 5.00198 12.75 4.99195 12.75C4.98192 12.75 4.97189 12.75 4.96188 12.75C4.95186 12.75 4.94185 12.75 4.93184 12.75C4.92184 12.75 4.91184 12.75 4.90184 12.75C4.89185 12.75 4.88187 12.75 4.87189 12.75C4.86191 12.75 4.85193 12.75 4.84196 12.75C4.832 12.75 4.82204 12.75 4.81208 12.75C4.80213 12.75 4.79218 12.75 4.78224 12.75C4.7723 12.75 4.76236 12.75 4.75244 12.75C4.74251 12.75 4.73259 12.75 4.72267 12.75C4.71276 12.75 4.70285 12.75 4.69295 12.75C4.68305 12.75 4.67316 12.75 4.66327 12.75C4.65338 12.75 4.64351 12.75 4.63363 12.75C4.62376 12.75 4.6139 12.75 4.60404 12.75C4.59418 12.75 4.58433 12.75 4.57449 12.75C4.56464 12.75 4.55481 12.75 4.54498 12.75C4.53515 12.75 4.52533 12.75 4.51551 12.75C4.5057 12.75 4.49589 12.75 4.48609 12.75C4.47629 12.75 4.4665 12.75 4.45672 12.75C4.44693 12.75 4.43716 12.75 4.42739 12.75C4.41762 12.75 4.40786 12.75 4.39811 12.75C4.38836 12.75 4.37861 12.75 4.36887 12.75C4.35914 12.75 4.34941 12.75 4.33969 12.75C4.32997 12.75 4.32025 12.75 4.31055 12.75C4.30084 12.75 4.29115 12.75 4.28146 12.75C4.27177 12.75 4.26209 12.75 4.25242 12.75C4.24275 12.75 4.23308 12.75 4.22343 12.75C4.21377 12.75 4.20412 12.75 4.19449 12.75C4.18485 12.75 4.17522 12.75 4.1656 12.75C4.15598 12.75 4.14636 12.75 4.13676 12.75C4.12715 12.75 4.11756 12.75 4.10797 12.75C4.09839 12.75 4.08881 12.75 4.07924 12.75C4.06967 12.75 4.06011 12.75 4.05056 12.75C4.04101 12.75 4.03146 12.75 4.02193 12.75C4.0124 12.75 4.00287 12.75 3.99336 12.75C3.98384 12.75 3.97434 12.75 3.96484 12.75C3.95534 12.75 3.94586 12.75 3.93638 12.75C3.9269 12.75 3.91743 12.75 3.90797 12.75C3.89851 12.75 3.88906 12.75 3.87962 12.75C3.87018 12.75 3.86075 12.75 3.85133 12.75C3.84191 12.75 3.8325 12.75 3.8231 12.75C3.81369 12.75 3.8043 12.75 3.79492 12.75C3.78554 12.75 3.77616 12.75 3.7668 12.75C3.75744 12.75 3.74808 12.75 3.73874 12.75C3.7294 12.75 3.72006 12.75 3.71074 12.75C3.70142 12.75 3.6921 12.75 3.6828 12.75C3.6735 12.75 3.66421 12.75 3.65492 12.75C3.64564 12.75 3.63637 12.75 3.62711 12.75C3.61785 12.75 3.60859 12.75 3.59935 12.75C3.59011 12.75 3.58088 12.75 3.57166 12.75C3.56244 12.75 3.55323 12.75 3.54403 12.75C3.53483 12.75 3.52564 12.75 3.51647 12.75C3.50729 12.75 3.49812 12.75 3.48896 12.75C3.47981 12.75 3.47066 12.75 3.46153 12.75C3.45239 12.75 3.44327 12.75 3.43416 12.75C3.42504 12.75 3.41594 12.75 3.40685 12.75C3.39776 12.75 3.38868 12.75 3.37961 12.75C3.37055 12.75 3.36149 12.75 3.35244 12.75C3.3434 12.75 3.33436 12.75 3.32534 12.75C3.31631 12.75 3.3073 12.75 3.2983 12.75C3.2893 12.75 3.28031 12.75 3.27133 12.75C3.26236 12.75 3.25339 12.75 3.24444 12.75C3.23548 12.75 3.22654 12.75 3.21761 12.75C3.20868 12.75 3.19976 12.75 3.19085 12.75C3.18194 12.75 3.17305 12.75 3.16416 12.75C3.15528 12.75 3.14641 12.75 3.13755 12.75C3.12869 12.75 3.11984 12.75 3.111 12.75C3.10217 12.75 3.09334 12.75 3.08453 12.75C3.07572 12.75 3.06692 12.75 3.05813 12.75C3.04935 12.75 3.04057 12.75 3.03181 12.75C3.02305 12.75 3.0143 12.75 3.00556 12.75C2.99682 12.75 2.98809 12.75 2.97938 12.75C2.97067 12.75 2.96197 12.75 2.95328 12.75C2.94459 12.75 2.93592 12.75 2.92726 12.75C2.91859 12.75 2.90995 12.75 2.90131 12.75C2.89267 12.75 2.88405 12.75 2.87544 12.75C2.86683 12.75 2.85823 12.75 2.84964 12.75C2.84106 12.75 2.83249 12.75 2.82393 12.75C2.81537 12.75 2.80682 12.75 2.79829 12.75C2.78976 12.75 2.78124 12.75 2.77273 12.75C2.76423 12.75 2.75573 12.75 2.74726 12.75C2.73878 12.75 2.73031 12.75 2.72186 12.75C2.71341 12.75 2.70497 12.75 2.69654 12.75C2.68812 12.75 2.6797 12.75 2.67131 12.75C2.66291 12.75 2.65452 12.75 2.64615 12.75C2.63778 12.75 2.62942 12.75 2.62108 12.75C2.61274 12.75 2.60441 12.75 2.59609 12.75C2.58778 12.75 2.57948 12.75 2.57119 12.75C2.5629 12.75 2.55463 12.75 2.54637 12.75C2.53811 12.75 2.52986 12.75 2.52163 12.75C2.5134 12.75 2.50518 12.75 2.49698 12.75C2.48878 12.75 2.48059 12.75 2.47242 12.75C2.46424 12.75 2.45608 12.75 2.44794 12.75C2.43979 12.75 2.43166 12.75 2.42355 12.75C2.41543 12.75 2.40733 12.75 2.39924 12.75C2.39116 12.75 2.38309 12.75 2.37503 12.75C2.36697 12.75 2.35893 12.75 2.3509 12.75C2.34287 12.75 2.33486 12.75 2.32686 12.75C2.31886 12.75 2.31088 12.75 2.30291 12.75C2.29495 12.75 2.28699 12.75 2.27906 12.75C2.27112 12.75 2.2632 12.75 2.25529 12.75C2.24738 12.75 2.23949 12.75 2.23161 12.75C2.22374 12.75 2.21587 12.75 2.20803 12.75C2.20018 12.75 2.19235 12.75 2.18454 12.75C2.17672 12.75 2.16892 12.75 2.16114 12.75C2.15335 12.75 2.14559 12.75 2.13783 12.75C2.13008 12.75 2.12234 12.75 2.11462 12.75C2.1069 12.75 2.0992 12.75 2.09151 12.75C2.08382 12.75 2.07614 12.75 2.06849 12.75C2.06083 12.75 2.05319 12.75 2.04556 12.75C2.03794 12.75 2.03033 12.75 2.02273 12.75C2.01514 12.75 2.00756 12.75 2 12.75V15.25ZM15.25 14V10H12.75V14H15.25ZM3.25 14V10H0.75V14H3.25Z" fill="white"/>
<path d="M8 2L8 7" stroke="white" stroke-width="2.5" stroke-linecap="round" stroke-linejoin="round"/>
<path d="M11 5.44401L8 7.77734L5 5.44401" stroke="white" stroke-width="2.5" stroke-linecap="round" stroke-linejoin="round"/>
</svg>
