<svg width="14" height="15" viewBox="0 0 14 15" fill="none" xmlns="http://www.w3.org/2000/svg">
<path fill-rule="evenodd" clip-rule="evenodd" d="M10 0.6521C10.5288 0.6521 10.9869 0.865431 11.3544 1.24263L13.4217 3.34776C13.7924 3.72524 14 4.18845 14 4.72536C14 5.25881 13.794 5.81219 13.4217 6.19133L5.89021 13.8571C5.36661 14.4722 4.62438 14.8501 3.7564 14.9101H1H0V13.8918L0.00324765 11.003C0.0669805 10.1997 0.43373 9.45268 0.981963 8.96147L8.56093 1.24375C8.93285 0.863075 9.47538 0.6521 10 0.6521ZM2.35157 10.4443C2.14601 10.6294 2.01885 10.8884 2 11.085V12.8744L3.68578 12.876C3.95369 12.8567 4.20307 12.7297 4.42749 12.47L8.80934 8.00793L6.77752 5.93889L2.35157 10.4443ZM8.19198 4.49903L10.2236 6.56781L11.9895 4.76953L9.95824 2.70106L8.19198 4.49903Z" fill="#8B8CD4"/>
</svg>
