<svg width="14" height="15" viewBox="0 0 14 15" fill="none" xmlns="http://www.w3.org/2000/svg">
<path fill-rule="evenodd" clip-rule="evenodd" d="M6 0.0183105H12C13.1523 0.0183105 14 0.881551 14 2.05494V8.16483C14 9.33821 13.1523 10.2015 12 10.2015H10V12.2381C10 13.4115 9.15228 14.2747 8 14.2747H2C0.847715 14.2747 0 13.4115 0 12.2381V6.1282C0 4.95481 0.847715 4.09157 2 4.09157H4V2.05494C4 0.881551 4.84772 0.0183105 6 0.0183105ZM4 6.1282H2V12.2381H8V10.2015H6C4.84772 10.2015 4 9.33821 4 8.16483V6.1282ZM6 2.05494V8.16483H12V2.05494H6Z" fill="white"/>
</svg>
