<svg width="52" height="14" viewBox="0 0 52 14" fill="none" xmlns="http://www.w3.org/2000/svg">
<path d="M2.69 11.056H6.956V13H0.152V0.291999H2.69V11.056ZM15.3245 0.112C16.5125 0.112 17.5865 0.388 18.5465 0.94C19.5185 1.492 20.2805 2.266 20.8325 3.262C21.3965 4.246 21.6785 5.362 21.6785 6.61C21.6785 7.858 21.3965 8.98 20.8325 9.976C20.2805 10.972 19.5185 11.746 18.5465 12.298C17.5865 12.85 16.5125 13.126 15.3245 13.126C14.1365 13.126 13.0565 12.85 12.0845 12.298C11.1245 11.746 10.3625 10.972 9.79845 9.976C9.24645 8.98 8.97045 7.858 8.97045 6.61C8.97045 5.362 9.24645 4.246 9.79845 3.262C10.3625 2.266 11.1245 1.492 12.0845 0.94C13.0565 0.388 14.1365 0.112 15.3245 0.112ZM15.3245 2.452C14.5805 2.452 13.9265 2.62 13.3625 2.956C12.7985 3.292 12.3545 3.778 12.0305 4.414C11.7185 5.038 11.5625 5.77 11.5625 6.61C11.5625 7.45 11.7185 8.188 12.0305 8.824C12.3545 9.448 12.7985 9.928 13.3625 10.264C13.9265 10.6 14.5805 10.768 15.3245 10.768C16.0685 10.768 16.7225 10.6 17.2865 10.264C17.8505 9.928 18.2885 9.448 18.6005 8.824C18.9245 8.188 19.0865 7.45 19.0865 6.61C19.0865 5.77 18.9245 5.038 18.6005 4.414C18.2885 3.778 17.8505 3.292 17.2865 2.956C16.7225 2.62 16.0685 2.452 15.3245 2.452ZM30.3732 0.165999C31.9212 0.165999 33.2052 0.549999 34.2252 1.318C35.2452 2.074 35.8992 3.1 36.1872 4.396H33.5232C33.2712 3.82 32.8692 3.364 32.3172 3.028C31.7772 2.68 31.1352 2.506 30.3912 2.506C29.6592 2.506 29.0112 2.674 28.4472 3.01C27.8832 3.346 27.4452 3.826 27.1332 4.45C26.8212 5.074 26.6652 5.806 26.6652 6.646C26.6652 7.978 27.0192 9.016 27.7272 9.76C28.4472 10.504 29.4252 10.876 30.6612 10.876C31.5732 10.876 32.3532 10.606 33.0012 10.066C33.6612 9.526 34.0872 8.776 34.2792 7.816H29.9772V5.998H36.4032V8.446C36.2232 9.286 35.8692 10.06 35.3412 10.768C34.8252 11.476 34.1412 12.046 33.2892 12.478C32.4492 12.898 31.4832 13.108 30.3912 13.108C29.1432 13.108 28.0392 12.838 27.0792 12.298C26.1312 11.746 25.3932 10.984 24.8652 10.012C24.3492 9.028 24.0912 7.906 24.0912 6.646C24.0912 5.386 24.3492 4.27 24.8652 3.298C25.3932 2.314 26.1312 1.546 27.0792 0.993999C28.0272 0.441999 29.1252 0.165999 30.3732 0.165999ZM45.1616 0.112C46.3496 0.112 47.4236 0.388 48.3836 0.94C49.3556 1.492 50.1176 2.266 50.6696 3.262C51.2336 4.246 51.5156 5.362 51.5156 6.61C51.5156 7.858 51.2336 8.98 50.6696 9.976C50.1176 10.972 49.3556 11.746 48.3836 12.298C47.4236 12.85 46.3496 13.126 45.1616 13.126C43.9736 13.126 42.8936 12.85 41.9216 12.298C40.9616 11.746 40.1996 10.972 39.6356 9.976C39.0836 8.98 38.8076 7.858 38.8076 6.61C38.8076 5.362 39.0836 4.246 39.6356 3.262C40.1996 2.266 40.9616 1.492 41.9216 0.94C42.8936 0.388 43.9736 0.112 45.1616 0.112ZM45.1616 2.452C44.4176 2.452 43.7636 2.62 43.1996 2.956C42.6356 3.292 42.1916 3.778 41.8676 4.414C41.5556 5.038 41.3996 5.77 41.3996 6.61C41.3996 7.45 41.5556 8.188 41.8676 8.824C42.1916 9.448 42.6356 9.928 43.1996 10.264C43.7636 10.6 44.4176 10.768 45.1616 10.768C45.9056 10.768 46.5596 10.6 47.1236 10.264C47.6876 9.928 48.1256 9.448 48.4376 8.824C48.7616 8.188 48.9236 7.45 48.9236 6.61C48.9236 5.77 48.7616 5.038 48.4376 4.414C48.1256 3.778 47.6876 3.292 47.1236 2.956C46.5596 2.62 45.9056 2.452 45.1616 2.452Z" fill="white"/>
</svg>
