<svg width="14" height="15" viewBox="0 0 14 15" fill="none" xmlns="http://www.w3.org/2000/svg">
<path fill-rule="evenodd" clip-rule="evenodd" d="M10 0.0183105C10.5288 0.0183105 10.9869 0.231641 11.3544 0.608845L13.4217 2.71397C13.7924 3.09145 14 3.55466 14 4.09157C14 4.62502 13.794 5.1784 13.4217 5.55753L5.89021 13.2233C5.36661 13.8384 4.62438 14.2163 3.7564 14.2763H1H0V13.258L0.00324765 10.3692C0.0669805 9.56586 0.43373 8.81889 0.981963 8.32767L8.56093 0.60996C8.93285 0.229286 9.47538 0.0183105 10 0.0183105ZM2.35157 9.8105C2.14601 9.99563 2.01885 10.2546 2 10.4512V12.2406L3.68578 12.2422C3.95369 12.2229 4.20307 12.0959 4.42749 11.8362L8.80934 7.37413L6.77752 5.30509L2.35157 9.8105ZM8.19198 3.86524L10.2236 5.93402L11.9895 4.13574L9.95824 2.06727L8.19198 3.86524Z" fill="#8B8CD4"/>
</svg>
