<svg width="48" height="48" viewBox="0 0 48 48" fill="none" xmlns="http://www.w3.org/2000/svg">
<circle cx="23.9054" cy="23.9054" r="17.5" transform="rotate(-30 23.9054 23.9054)" fill="url(#paint0_linear)"/>
<path d="M19.8886 24.3004C19.1038 24.0349 18.2524 24.4559 17.987 25.2406C17.7215 26.0254 18.1425 26.8767 18.9272 27.1422L19.8886 24.3004ZM24.531 27.4544L24.0503 28.8753C24.8203 29.1358 25.6577 28.7355 25.9386 27.9728L24.531 27.4544ZM29.5342 18.2095C29.8205 17.4321 29.4224 16.5698 28.645 16.2835C27.8676 15.9972 27.0053 16.3953 26.719 17.1727L29.5342 18.2095ZM18.9272 27.1422L24.0503 28.8753L25.0117 26.0335L19.8886 24.3004L18.9272 27.1422ZM25.9386 27.9728L29.5342 18.2095L26.719 17.1727L23.1234 26.936L25.9386 27.9728Z" fill="white"/>
<defs>
<linearGradient id="paint0_linear" x1="23.9054" y1="6.40545" x2="23.9054" y2="41.4054" gradientUnits="userSpaceOnUse">
<stop stop-color="#FFDEBF"/>
<stop offset="1" stop-color="#FFCC9C"/>
</linearGradient>
</defs>
</svg>
