<svg width="65" height="65" viewBox="0 0 65 65" fill="none" xmlns="http://www.w3.org/2000/svg">
<rect x="17.9185" width="50" height="50" rx="25" transform="rotate(21 17.9185 0)" fill="url(#paint0_linear)"/>
<path d="M34.9345 38.1766L32.5725 37.2699L32.8563 36.5305C31.9247 36.9113 30.9522 36.9072 29.939 36.5182C28.556 35.9873 27.6246 35.1192 27.1447 33.9138C26.6595 32.7222 26.6982 31.3938 27.2606 29.9287C27.7914 28.5457 28.7327 27.5874 30.0844 27.0537C31.4551 26.5116 32.9003 26.5322 34.4202 27.1156C36.0085 27.7253 37.2496 28.6259 38.1433 29.8173L35.7781 35.9789L36.1888 36.1366C36.7639 36.3574 37.3572 36.2238 37.9687 35.7358C38.5939 35.2531 39.1009 34.5052 39.4899 33.4919C40.1153 31.8625 40.0369 30.2457 39.2545 28.6414C38.4721 27.0371 37.0882 25.8539 35.1028 25.0918C33.09 24.3192 31.1735 24.2983 29.3534 25.0292C27.5279 25.7739 26.221 27.1731 25.4326 29.227C24.681 31.185 24.7333 33.0746 25.5895 34.8957C26.4731 36.7274 27.894 38.019 29.852 38.7706C30.6325 39.0702 31.4034 39.2719 32.1648 39.3757L31.4239 41.6127C30.5888 41.4964 29.781 41.2884 29.0005 40.9888C26.3305 39.9639 24.4476 38.2593 23.352 35.8749C22.2564 33.4906 22.2105 30.9908 23.2144 28.3755C24.1868 25.8424 25.8925 24.0385 28.3316 22.9639C30.7518 21.8977 33.2901 21.8745 35.9464 22.8942C38.5069 23.8771 40.3291 25.4327 41.413 27.5612C42.5158 29.6812 42.6073 31.9393 41.6875 34.3355C41.1146 35.828 40.2071 36.9643 38.9651 37.7443C37.7557 38.5212 36.4122 38.6653 34.9345 38.1766ZM31.2139 34.4861C32.0218 34.7962 32.8504 34.7451 33.6999 34.3329L35.1821 30.4716C34.6816 29.9338 34.137 29.5519 33.5482 29.3259C32.6993 29 31.9285 29.0027 31.2358 29.3338C30.5484 29.6512 30.0523 30.2069 29.7474 31.0011C29.4478 31.7816 29.4277 32.4887 29.6872 33.1224C29.9656 33.7477 30.4745 34.2023 31.2139 34.4861Z" fill="white"/>
<defs>
<linearGradient id="paint0_linear" x1="42.9185" y1="0" x2="42.9185" y2="50" gradientUnits="userSpaceOnUse">
<stop stop-color="#FFA696"/>
<stop offset="1" stop-color="#EF8471"/>
</linearGradient>
</defs>
</svg>
