<svg width="29" height="29" viewBox="0 0 29 29" fill="none" xmlns="http://www.w3.org/2000/svg">
<path d="M22.0593 26.2247L9.95493 27.559C6.4389 27.9466 3.64323 24.6605 4.58919 21.252L6.02931 16.063C6.57606 14.0929 8.26715 12.6542 10.2994 12.4302L18.7592 11.4976C20.8984 11.2618 22.9484 12.4213 23.8486 14.3762L26.0531 19.1635C27.4806 22.2634 25.4516 25.8508 22.0593 26.2247Z" fill="#9ECFF9"/>
<path d="M26.0531 19.1635L26.5073 18.9543L26.0531 19.1635ZM23.8486 14.3762L24.3028 14.1671L23.8486 14.3762ZM6.02931 16.063L6.5111 16.1967L6.5111 16.1967L6.02931 16.063ZM4.58919 21.252L4.1074 21.1183L4.58919 21.252ZM10.0097 28.056L22.1141 26.7217L22.0045 25.7277L9.90014 27.062L10.0097 28.056ZM26.5073 18.9543L24.3028 14.1671L23.3945 14.5853L25.5989 19.3726L26.5073 18.9543ZM18.7044 11.0007L10.2446 11.9332L10.3541 12.9272L18.8139 11.9946L18.7044 11.0007ZM5.54752 15.9292L4.1074 21.1183L5.07098 21.3857L6.5111 16.1967L5.54752 15.9292ZM10.2446 11.9332C8.00914 12.1796 6.14895 13.7622 5.54752 15.9292L6.5111 16.1967C7.00317 14.4236 8.52515 13.1288 10.3541 12.9272L10.2446 11.9332ZM24.3028 14.1671C23.3126 12.0167 21.0575 10.7413 18.7044 11.0007L18.8139 11.9946C20.7392 11.7824 22.5843 12.826 23.3945 14.5853L24.3028 14.1671ZM22.1141 26.7217C25.8456 26.3104 28.0775 22.3642 26.5073 18.9543L25.5989 19.3726C26.8836 22.1625 25.0575 25.3912 22.0045 25.7277L22.1141 26.7217ZM9.90014 27.062C6.73572 27.4108 4.21962 24.4533 5.07098 21.3857L4.1074 21.1183C3.06684 24.8676 6.14208 28.4823 10.0097 28.056L9.90014 27.062Z" fill="#9ECFF9"/>
<circle cx="13.6828" cy="7.62807" r="6.5" transform="rotate(-6.29043 13.6828 7.62807)" fill="#AAEEFE"/>
</svg>
