<svg width="30" height="30" viewBox="0 0 30 30" fill="none" xmlns="http://www.w3.org/2000/svg">
<path d="M2.19806 17.7663C1.86267 18.5238 2.20486 19.4097 2.96236 19.7451C3.71986 20.0805 4.60582 19.7383 4.94121 18.9808L2.19806 17.7663ZM23.5937 12.2512C24.3325 12.626 25.2352 12.3308 25.61 11.592C25.9847 10.8532 25.6896 9.95044 24.9507 9.5757L23.5937 12.2512ZM3.56963 18.3736C4.94121 18.9808 4.94101 18.9813 4.94081 18.9817C4.94076 18.9818 4.94057 18.9823 4.94047 18.9825C4.94026 18.983 4.94009 18.9834 4.93995 18.9837C4.93969 18.9842 4.93958 18.9845 4.93962 18.9844C4.9397 18.9842 4.94039 18.9827 4.9417 18.9798C4.94432 18.9741 4.94941 18.963 4.95697 18.947C4.97212 18.9148 4.99718 18.8627 5.03236 18.7927C5.10277 18.6526 5.21339 18.4419 5.3658 18.178C5.67126 17.6493 6.14075 16.9139 6.78577 16.1099C8.08219 14.4941 10.0412 12.658 12.75 11.6118L11.6691 8.81327C8.31439 10.109 5.95346 12.3534 4.4458 14.2326C3.68878 15.1761 3.1352 16.0419 2.76809 16.6774C2.58421 16.9957 2.44618 17.2579 2.35201 17.4452C2.3049 17.5389 2.26868 17.614 2.24312 17.6683C2.23034 17.6954 2.22022 17.7173 2.21272 17.7338C2.20897 17.742 2.20587 17.7488 2.20343 17.7542C2.20221 17.757 2.20115 17.7593 2.20026 17.7613C2.19981 17.7623 2.1994 17.7633 2.19904 17.7641C2.19885 17.7645 2.19861 17.765 2.19852 17.7652C2.19828 17.7658 2.19806 17.7663 3.56963 18.3736ZM12.75 11.6118C15.4221 10.5797 18.1219 10.7207 20.2102 11.1536C21.2475 11.3686 22.1104 11.6509 22.7092 11.8775C23.0079 11.9906 23.2388 12.0889 23.3904 12.1567C23.4662 12.1905 23.522 12.2167 23.5564 12.2332C23.5736 12.2414 23.5854 12.2472 23.5917 12.2503C23.5948 12.2518 23.5966 12.2527 23.5969 12.2529C23.5971 12.2529 23.5969 12.2529 23.5964 12.2526C23.5961 12.2524 23.5958 12.2523 23.5953 12.252C23.5951 12.2519 23.5947 12.2517 23.5946 12.2517C23.5941 12.2515 23.5937 12.2512 24.2722 10.9135C24.9507 9.5757 24.9503 9.57545 24.9497 9.57519C24.9495 9.57509 24.949 9.57481 24.9486 9.57461C24.9478 9.5742 24.9469 9.57374 24.9459 9.57324C24.9439 9.57223 24.9415 9.57105 24.9388 9.56968C24.9333 9.56694 24.9264 9.56349 24.918 9.55935C24.9012 9.55108 24.8786 9.54006 24.8504 9.52657C24.7939 9.49959 24.7149 9.46266 24.6148 9.4179C24.4147 9.32843 24.1295 9.20735 23.771 9.07169C23.0555 8.80095 22.0396 8.46897 20.8191 8.21599C18.3919 7.7129 15.0604 7.50342 11.6691 8.81327L12.75 11.6118Z" fill="#A8AAF9"/>
<path d="M8.12747 20.0467C7.79479 20.8054 8.14016 21.6902 8.89885 22.0228C9.65755 22.3555 10.5423 22.0101 10.875 21.2515L8.12747 20.0467ZM21.1323 17.7925C21.8837 18.1414 22.7756 17.8152 23.1246 17.0638C23.4735 16.3125 23.1473 15.4205 22.3959 15.0716L21.1323 17.7925ZM9.50121 20.6491C10.875 21.2515 10.8748 21.2519 10.8746 21.2523C10.8745 21.2524 10.8744 21.2528 10.8743 21.253C10.874 21.2535 10.8739 21.2539 10.8737 21.2543C10.8734 21.255 10.8731 21.2556 10.873 21.2559C10.8727 21.2565 10.8728 21.2563 10.8732 21.2554C10.8741 21.2534 10.8765 21.2482 10.8803 21.24C10.8879 21.2236 10.9013 21.1952 10.9206 21.156C10.9591 21.0777 11.0208 20.9572 11.1057 20.8056C11.2762 20.5009 11.5363 20.0782 11.8862 19.6211C12.599 18.6902 13.6109 17.7125 14.9101 17.2107L13.8292 14.4122C11.8211 15.1878 10.3988 16.6289 9.50415 17.7974C9.05037 18.3901 8.71343 18.9373 8.48795 19.3401C8.37482 19.5422 8.28866 19.7099 8.22894 19.8312C8.19905 19.8919 8.1757 19.9412 8.15883 19.9776C8.15039 19.9958 8.14356 20.0107 8.13834 20.0223C8.13573 20.0281 8.13352 20.0331 8.13171 20.0371C8.1308 20.0392 8.12999 20.041 8.12929 20.0426C8.12893 20.0434 8.12861 20.0441 8.1283 20.0448C8.12815 20.0452 8.12794 20.0457 8.12786 20.0458C8.12766 20.0463 8.12747 20.0467 9.50121 20.6491ZM14.9101 17.2107C16.1624 16.727 17.6678 16.8188 18.9857 17.1079C19.6245 17.248 20.1739 17.4244 20.5616 17.5653C20.7546 17.6354 20.905 17.6958 21.0036 17.737C21.0529 17.7576 21.0891 17.7733 21.1109 17.783C21.1219 17.7878 21.1292 17.7911 21.1328 17.7928C21.1347 17.7936 21.1355 17.794 21.1354 17.7939C21.1354 17.7939 21.1351 17.7938 21.1346 17.7936C21.1343 17.7934 21.134 17.7933 21.1337 17.7931C21.1335 17.793 21.1331 17.7929 21.133 17.7928C21.1327 17.7927 21.1323 17.7925 21.7641 16.432C22.3959 15.0716 22.3955 15.0714 22.3951 15.0712C22.3949 15.0711 22.3945 15.0709 22.3942 15.0708C22.3936 15.0705 22.3929 15.0702 22.3921 15.0698C22.3906 15.0691 22.3888 15.0683 22.3868 15.0674C22.3828 15.0656 22.3778 15.0633 22.3717 15.0605C22.3597 15.0551 22.3437 15.0479 22.3239 15.0391C22.2843 15.0216 22.2294 14.9978 22.1604 14.969C22.0226 14.9114 21.8279 14.8335 21.586 14.7456C21.1041 14.5705 20.4249 14.3522 19.6285 14.1775C18.076 13.837 15.8842 13.6184 13.8292 14.4122L14.9101 17.2107Z" fill="#A8AAF9"/>
<circle cx="16.8924" cy="22.3424" r="2" transform="rotate(-21.1184 16.8924 22.3424)" fill="#A8AAF9"/>
</svg>
