<svg width="65" height="65" viewBox="0 0 65 65" fill="none" xmlns="http://www.w3.org/2000/svg">
<rect x="17.918" width="50" height="50" rx="25" transform="rotate(21 17.918 0)" fill="url(#paint0_linear)"/>
<path d="M31.1963 39.6309L30.8237 42.4043" stroke="white" stroke-width="2"/>
<path d="M26.6007 41.1417C26.0533 41.0682 25.55 41.4523 25.4764 41.9997C25.4029 42.547 25.787 43.0504 26.3344 43.1239L26.6007 41.1417ZM34.6547 44.2417C35.202 44.3153 35.7054 43.9312 35.7789 43.3838C35.8525 42.8364 35.4683 42.3331 34.921 42.2595L34.6547 44.2417ZM26.3344 43.1239L34.6547 44.2417L34.921 42.2595L26.6007 41.1417L26.3344 43.1239Z" fill="white"/>
<path d="M26.3271 31.9411C26.327 31.3888 25.8791 30.9412 25.3268 30.9414C24.7745 30.9416 24.327 31.3895 24.3271 31.9417L26.3271 31.9411ZM39.8614 33.9843C39.9836 33.4457 39.646 32.91 39.1074 32.7878C38.5688 32.6656 38.0331 33.0032 37.9109 33.5418L39.8614 33.9843ZM25.3271 31.9414C24.3271 31.9417 24.3271 31.9422 24.3271 31.9428C24.3271 31.943 24.3272 31.9435 24.3272 31.9439C24.3272 31.9448 24.3272 31.9457 24.3272 31.9467C24.3272 31.9487 24.3272 31.9512 24.3272 31.954C24.3273 31.9596 24.3273 31.9668 24.3275 31.9754C24.3277 31.9926 24.3283 32.0158 24.3292 32.0446C24.3311 32.1021 24.3346 32.182 24.3415 32.2815C24.3552 32.48 24.3821 32.7579 24.4349 33.0912C24.5401 33.7543 24.7512 34.6564 25.1792 35.5957C26.0508 37.5083 27.8282 39.5608 31.2838 40.0251L31.5501 38.0429C28.9181 37.6893 27.6505 36.1955 26.9991 34.7663C26.6657 34.0346 26.4957 33.3169 26.4103 32.778C26.3678 32.5103 26.347 32.2916 26.3368 32.1438C26.3317 32.07 26.3293 32.0144 26.3281 31.9796C26.3276 31.9622 26.3273 31.95 26.3272 31.9435C26.3272 31.9402 26.3271 31.9383 26.3271 31.9379C26.3271 31.9377 26.3271 31.9379 26.3271 31.9384C26.3271 31.9387 26.3271 31.939 26.3271 31.9395C26.3271 31.9397 26.3271 31.9401 26.3271 31.9402C26.3271 31.9406 26.3271 31.9411 25.3271 31.9414ZM31.2838 40.0251C34.7467 40.4903 36.9431 38.9629 38.2233 37.3198C38.8493 36.5164 39.2543 35.6925 39.5028 35.0751C39.6278 34.7645 39.7153 34.5011 39.7724 34.3115C39.801 34.2165 39.8221 34.1396 39.8366 34.0841C39.8439 34.0563 39.8495 34.0339 39.8536 34.0171C39.8556 34.0087 39.8573 34.0018 39.8586 33.9963C39.8592 33.9935 39.8598 33.9912 39.8602 33.9892C39.8605 33.9882 39.8607 33.9873 39.8609 33.9865C39.861 33.986 39.8611 33.9855 39.8611 33.9853C39.8612 33.9848 39.8614 33.9843 38.8861 33.763C37.9109 33.5418 37.911 33.5413 37.9111 33.5409C37.9112 33.5408 37.9112 33.5404 37.9113 33.5402C37.9114 33.5397 37.9115 33.5394 37.9115 33.5391C37.9117 33.5386 37.9117 33.5384 37.9117 33.5386C37.9116 33.539 37.9112 33.5408 37.9104 33.5439C37.9089 33.5501 37.906 33.5617 37.9016 33.5783C37.8929 33.6116 37.8784 33.6648 37.8574 33.7347C37.8152 33.8748 37.7471 34.0807 37.6475 34.3282C37.4468 34.8269 37.1259 35.4741 36.6456 36.0906C35.7131 37.2874 34.175 38.3955 31.5501 38.0429L31.2838 40.0251Z" fill="white"/>
<path d="M30.1383 28.8223L35.6852 29.5675" stroke="white" stroke-width="2"/>
<rect x="30.2232" y="21.6867" width="6.70597" height="13.5464" rx="3.35299" transform="rotate(7.65182 30.2232 21.6867)" stroke="white" stroke-width="2"/>
<defs>
<linearGradient id="paint0_linear" x1="42.918" y1="0" x2="42.918" y2="50" gradientUnits="userSpaceOnUse">
<stop stop-color="#FFA696"/>
<stop offset="1" stop-color="#EF8471"/>
</linearGradient>
</defs>
</svg>
