<svg width="35" height="34" viewBox="0 0 35 34" fill="none" xmlns="http://www.w3.org/2000/svg">
<path d="M7.71672 9.9633C7.71672 9.9633 6.32062 11.9314 7.43048 14.8794C8.54034 17.8274 10.8877 18.3862 10.8877 18.3862" stroke="#A8AAF9" stroke-width="2.5" stroke-linecap="round" stroke-linejoin="round"/>
<path d="M2.33269 9.85392C2.33269 9.85392 1.14799 12.3835 2.75112 16.6418C4.35425 20.9 6.91305 22.0203 6.91305 22.0203" stroke="#A8AAF9" stroke-width="2.5" stroke-linecap="round" stroke-linejoin="round"/>
<path d="M23.8577 1.74959C23.8577 1.74959 26.4165 2.86988 28.0197 7.1281C29.6228 11.3863 28.4381 13.916 28.4381 13.916" stroke="#A8AAF9" stroke-width="2.5" stroke-linecap="round" stroke-linejoin="round"/>
<path d="M19.8831 5.38436C19.8831 5.38436 22.2305 5.94312 23.3404 8.89112C24.4502 11.8391 23.0542 13.8072 23.0542 13.8072" stroke="#A8AAF9" stroke-width="2.5" stroke-linecap="round" stroke-linejoin="round"/>
<path d="M16.9709 16.0957L21.3751 27.7941" stroke="#A8AAF9" stroke-width="2.5"/>
<path d="M12.9467 26.6935L16.6185 15.1602L26.9848 21.4085L21.9036 29.1983L12.9467 26.6935Z" stroke="#A8AAF9" stroke-width="2.5" stroke-linecap="round" stroke-linejoin="round"/>
<circle cx="15.3854" cy="11.8857" r="3.25" transform="rotate(-20.6302 15.3854 11.8857)" stroke="#A8AAF9" stroke-width="2.5"/>
</svg>
