<svg width="36" height="32" viewBox="0 0 36 32" fill="none" xmlns="http://www.w3.org/2000/svg">
<path d="M25.8373 5.60561C25.1466 6.06307 24.9576 6.99381 25.4151 7.68448C25.8725 8.37514 26.8032 8.5642 27.4939 8.10674L25.8373 5.60561ZM30.1303 6.36053C30.821 5.90307 31.0101 4.97233 30.5526 4.28166C30.0952 3.59099 29.1644 3.40194 28.4737 3.85939L30.1303 6.36053ZM27.4939 8.10674L30.1303 6.36053L28.4737 3.85939L25.8373 5.60561L27.4939 8.10674Z" fill="white"/>
<path d="M29.4403 18.9733C28.6133 18.9249 27.9821 18.2152 28.0306 17.3882C28.079 16.5611 28.7887 15.93 29.6157 15.9784L29.4403 18.9733ZM32.7726 16.1633C33.5996 16.2117 34.2307 16.9214 34.1823 17.7484C34.1339 18.5755 33.4242 19.2066 32.5972 19.1582L32.7726 16.1633ZM29.6157 15.9784L32.7726 16.1633L32.5972 19.1582L29.4403 18.9733L29.6157 15.9784Z" fill="white"/>
<path d="M29.3876 13.3833C28.5892 13.6043 27.7628 13.1363 27.5418 12.3379C27.3207 11.5395 27.7888 10.7131 28.5872 10.4921L29.3876 13.3833ZM31.6348 9.64827C32.4332 9.42722 33.2596 9.89525 33.4806 10.6936C33.7017 11.492 33.2337 12.3185 32.4353 12.5395L31.6348 9.64827ZM28.5872 10.4921L31.6348 9.64827L32.4353 12.5395L29.3876 13.3833L28.5872 10.4921Z" fill="white"/>
<path d="M6.95061 29.7757L6.75241 23.6151L11.1826 22.4211L11.3808 28.5818L6.95061 29.7757Z" stroke="#C8F5FF" stroke-width="2.5" stroke-linecap="round" stroke-linejoin="round"/>
<path d="M12.3613 12.2354L18.1393 6.77444C18.9642 5.99482 20.3226 6.37835 20.618 7.47426L24.2046 20.7825C24.505 21.8972 23.4863 22.9193 22.3706 22.6224L14.5609 20.5447C14.0429 20.4068 13.6377 20.003 13.4982 19.4854L11.9433 13.7158C11.7997 13.183 11.9603 12.6144 12.3613 12.2354Z" stroke="#C8F5FF" stroke-width="3" stroke-linecap="round" stroke-linejoin="round"/>
<rect x="3.35375" y="15.4696" width="8.5" height="7.5" rx="1.75" transform="rotate(-15.0832 3.35375 15.4696)" stroke="#C8F5FF" stroke-width="2.5" stroke-linecap="round" stroke-linejoin="round"/>
</svg>
