<svg width="65" height="65" viewBox="0 0 65 65" fill="none" xmlns="http://www.w3.org/2000/svg">
<rect x="17.9185" width="50" height="50" rx="25" transform="rotate(21 17.9185 0)" fill="url(#paint0_linear)"/>
<path d="M32.1968 39.6309L31.8242 42.4043" stroke="white" stroke-width="2"/>
<path d="M27.6012 41.1417C27.0538 41.0682 26.5505 41.4523 26.4769 41.9997C26.4034 42.547 26.7875 43.0504 27.3349 43.1239L27.6012 41.1417ZM35.6552 44.2417C36.2025 44.3153 36.7059 43.9312 36.7794 43.3838C36.8529 42.8364 36.4688 42.3331 35.9215 42.2595L35.6552 44.2417ZM27.3349 43.1239L35.6552 44.2417L35.9215 42.2595L27.6012 41.1417L27.3349 43.1239Z" fill="white"/>
<path d="M27.3276 31.9401C27.3274 31.3878 26.8796 30.9402 26.3273 30.9404C25.775 30.9406 25.3274 31.3885 25.3276 31.9408L27.3276 31.9401ZM40.8618 33.9833C40.984 33.4447 40.6465 32.9091 40.1079 32.7869C39.5693 32.6647 39.0336 33.0022 38.9114 33.5408L40.8618 33.9833ZM26.3276 31.9404C25.3276 31.9408 25.3276 31.9413 25.3276 31.9418C25.3276 31.942 25.3276 31.9425 25.3276 31.943C25.3276 31.9438 25.3276 31.9447 25.3276 31.9457C25.3277 31.9478 25.3277 31.9502 25.3277 31.953C25.3277 31.9586 25.3278 31.9658 25.328 31.9744C25.3282 31.9917 25.3287 32.0149 25.3297 32.0436C25.3315 32.1011 25.3351 32.1811 25.342 32.2805C25.3557 32.479 25.3826 32.7569 25.4354 33.0903C25.5406 33.7534 25.7517 34.6555 26.1797 35.5947C27.0513 37.5073 28.8287 39.5598 32.2843 40.0241L32.5506 38.0419C29.9186 37.6883 28.651 36.1946 27.9996 34.7653C27.6662 34.0337 27.4962 33.316 27.4107 32.777C27.3683 32.5093 27.3474 32.2906 27.3372 32.1428C27.3322 32.0691 27.3298 32.0134 27.3286 31.9786C27.3281 31.9612 27.3278 31.949 27.3277 31.9425C27.3276 31.9392 27.3276 31.9374 27.3276 31.937C27.3276 31.9367 27.3276 31.9369 27.3276 31.9374C27.3276 31.9377 27.3276 31.938 27.3276 31.9385C27.3276 31.9387 27.3276 31.9391 27.3276 31.9392C27.3276 31.9396 27.3276 31.9401 26.3276 31.9404ZM32.2843 40.0241C35.7471 40.4893 37.9436 38.962 39.2238 37.3188C39.8498 36.5154 40.2548 35.6915 40.5033 35.0741C40.6283 34.7635 40.7158 34.5001 40.7729 34.3105C40.8015 34.2155 40.8226 34.1387 40.8371 34.0831C40.8444 34.0554 40.85 34.0329 40.8541 34.0161C40.8561 34.0077 40.8578 34.0008 40.8591 33.9953C40.8597 33.9926 40.8603 33.9902 40.8607 33.9882C40.861 33.9872 40.8612 33.9863 40.8614 33.9855C40.8614 33.9851 40.8616 33.9845 40.8616 33.9843C40.8617 33.9838 40.8618 33.9833 39.8866 33.7621C38.9114 33.5408 38.9115 33.5404 38.9116 33.5399C38.9116 33.5398 38.9117 33.5394 38.9118 33.5392C38.9119 33.5388 38.912 33.5384 38.912 33.5382C38.9121 33.5376 38.9122 33.5375 38.9121 33.5376C38.9121 33.538 38.9116 33.5398 38.9109 33.5429C38.9094 33.5491 38.9065 33.5607 38.9021 33.5774C38.8934 33.6106 38.8789 33.6638 38.8579 33.7337C38.8157 33.8739 38.7476 34.0798 38.648 34.3273C38.4473 34.8259 38.1264 35.4731 37.6461 36.0896C36.7136 37.2865 35.1755 38.3946 32.5506 38.0419L32.2843 40.0241Z" fill="white"/>
<path d="M31.1389 28.8223L36.6858 29.5675" stroke="white" stroke-width="2"/>
<rect x="31.2237" y="21.6858" width="6.70597" height="13.5464" rx="3.35299" transform="rotate(7.65182 31.2237 21.6858)" stroke="white" stroke-width="2"/>
<defs>
<linearGradient id="paint0_linear" x1="42.9185" y1="0" x2="42.9185" y2="50" gradientUnits="userSpaceOnUse">
<stop stop-color="#FFA696"/>
<stop offset="1" stop-color="#EF8471"/>
</linearGradient>
</defs>
</svg>
