<svg width="35" height="34" viewBox="0 0 35 34" fill="none" xmlns="http://www.w3.org/2000/svg">
<path d="M7.25578 9.9174C7.25578 9.9174 5.85969 11.8855 6.96954 14.8335C8.0794 17.7815 10.4268 18.3403 10.4268 18.3403" stroke="#A8AAF9" stroke-width="2.5" stroke-linecap="round" stroke-linejoin="round"/>
<path d="M1.87175 9.80705C1.87175 9.80705 0.687054 12.3367 2.29018 16.5949C3.89331 20.8531 6.45211 21.9734 6.45211 21.9734" stroke="#A8AAF9" stroke-width="2.5" stroke-linecap="round" stroke-linejoin="round"/>
<path d="M23.3968 1.70369C23.3968 1.70369 25.9556 2.82398 27.5587 7.0822C29.1619 11.3404 27.9772 13.8701 27.9772 13.8701" stroke="#A8AAF9" stroke-width="2.5" stroke-linecap="round" stroke-linejoin="round"/>
<path d="M19.4222 5.33651C19.4222 5.33651 21.7696 5.89527 22.8795 8.84327C23.9893 11.7913 22.5932 13.7594 22.5932 13.7594" stroke="#A8AAF9" stroke-width="2.5" stroke-linecap="round" stroke-linejoin="round"/>
<path d="M16.51 16.0498L20.9142 27.7482" stroke="#A8AAF9" stroke-width="2.5"/>
<path d="M12.4859 26.6476L16.1577 15.1143L26.524 21.3626L21.4428 29.1524L12.4859 26.6476Z" stroke="#A8AAF9" stroke-width="2.5" stroke-linecap="round" stroke-linejoin="round"/>
<circle cx="14.9244" cy="11.8388" r="3.25" transform="rotate(-20.6302 14.9244 11.8388)" stroke="#A8AAF9" stroke-width="2.5"/>
</svg>
