<svg width="36" height="32" viewBox="0 0 36 32" fill="none" xmlns="http://www.w3.org/2000/svg">
<path d="M25.8373 5.60463C25.1466 6.06209 24.9576 6.99283 25.4151 7.6835C25.8725 8.37417 26.8032 8.56322 27.4939 8.10576L25.8373 5.60463ZM30.1303 6.35955C30.821 5.90209 31.0101 4.97135 30.5526 4.28068C30.0952 3.59001 29.1644 3.40096 28.4737 3.85842L30.1303 6.35955ZM27.4939 8.10576L30.1303 6.35955L28.4737 3.85842L25.8373 5.60463L27.4939 8.10576Z" fill="white"/>
<path d="M29.4403 18.9743C28.6133 18.9258 27.9821 18.2161 28.0306 17.3891C28.079 16.5621 28.7887 15.931 29.6157 15.9794L29.4403 18.9743ZM32.7726 16.1643C33.5996 16.2127 34.2307 16.9224 34.1823 17.7494C34.1339 18.5764 33.4242 19.2076 32.5972 19.1592L32.7726 16.1643ZM29.6157 15.9794L32.7726 16.1643L32.5972 19.1592L29.4403 18.9743L29.6157 15.9794Z" fill="white"/>
<path d="M29.3876 13.3823C28.5892 13.6034 27.7628 13.1353 27.5418 12.3369C27.3207 11.5385 27.7888 10.7121 28.5872 10.4911L29.3876 13.3823ZM31.6348 9.64729C32.4332 9.42625 33.2596 9.89428 33.4806 10.6927C33.7017 11.4911 33.2337 12.3175 32.4353 12.5385L31.6348 9.64729ZM28.5872 10.4911L31.6348 9.64729L32.4353 12.5385L29.3876 13.3823L28.5872 10.4911Z" fill="white"/>
<path d="M6.95061 29.7757L6.75241 23.6151L11.1826 22.4211L11.3808 28.5818L6.95061 29.7757Z" stroke="#C8F5FF" stroke-width="2.5" stroke-linecap="round" stroke-linejoin="round"/>
<path d="M12.3613 12.2344L18.1393 6.77346C18.9642 5.99384 20.3226 6.37737 20.618 7.47328L24.2046 20.7816C24.505 21.8963 23.4863 22.9183 22.3706 22.6215L14.5609 20.5437C14.0429 20.4059 13.6377 20.002 13.4982 19.4844L11.9433 13.7149C11.7997 13.1821 11.9603 12.6134 12.3613 12.2344Z" stroke="#C8F5FF" stroke-width="3" stroke-linecap="round" stroke-linejoin="round"/>
<rect x="3.35375" y="15.4686" width="8.5" height="7.5" rx="1.75" transform="rotate(-15.0832 3.35375 15.4686)" stroke="#C8F5FF" stroke-width="2.5" stroke-linecap="round" stroke-linejoin="round"/>
</svg>
