<svg width="10" height="10" viewBox="0 0 10 10" fill="none" xmlns="http://www.w3.org/2000/svg">
<path d="M9.19246 2.70711C9.58298 2.31658 9.58298 1.68342 9.19246 1.29289C8.80193 0.902369 8.16877 0.902369 7.77824 1.29289L9.19246 2.70711ZM1.29296 7.77817C0.902438 8.1687 0.902439 8.80186 1.29296 9.19239C1.68349 9.58291 2.31665 9.58291 2.70718 9.19239L1.29296 7.77817ZM7.77824 1.29289L1.29296 7.77817L2.70718 9.19239L9.19246 2.70711L7.77824 1.29289Z" fill="#888AF7"/>
<path d="M7.77824 9.19234C8.16877 9.58286 8.80193 9.58286 9.19246 9.19234C9.58298 8.80181 9.58298 8.16865 9.19246 7.77812L7.77824 9.19234ZM2.70718 1.29284C2.31665 0.902317 1.68349 0.902317 1.29296 1.29284C0.902439 1.68337 0.902439 2.31653 1.29296 2.70706L2.70718 1.29284ZM9.19246 7.77812L2.70718 1.29284L1.29296 2.70706L7.77824 9.19234L9.19246 7.77812Z" fill="#888AF7"/>
</svg>
