<svg width="11" height="11" viewBox="0 0 11 11" fill="none" xmlns="http://www.w3.org/2000/svg">
<path d="M1 10H0C0 10.5523 0.447715 11 1 11L1 10ZM10 10V11C10.5523 11 11 10.5523 11 10H10ZM11 7C11 6.44772 10.5523 6 10 6C9.44771 6 9 6.44772 9 7H11ZM2 7C2 6.44772 1.55228 6 1 6C0.447715 6 0 6.44772 0 7H2ZM1 11C1.00567 11 1.01135 11 1.01705 11C1.02274 11 1.02845 11 1.03417 11C1.03989 11 1.04562 11 1.05136 11C1.05711 11 1.06286 11 1.06863 11C1.0744 11 1.08018 11 1.08597 11C1.09176 11 1.09756 11 1.10338 11C1.10919 11 1.11502 11 1.12085 11C1.12669 11 1.13254 11 1.1384 11C1.14426 11 1.15014 11 1.15602 11C1.16191 11 1.1678 11 1.17371 11C1.17962 11 1.18554 11 1.19147 11C1.1974 11 1.20334 11 1.20929 11C1.21525 11 1.22121 11 1.22719 11C1.23316 11 1.23915 11 1.24515 11C1.25115 11 1.25715 11 1.26318 11C1.2692 11 1.27523 11 1.28127 11C1.28731 11 1.29337 11 1.29943 11C1.3055 11 1.31157 11 1.31766 11C1.32375 11 1.32985 11 1.33595 11C1.34206 11 1.34818 11 1.35431 11C1.36044 11 1.36658 11 1.37274 11C1.37889 11 1.38505 11 1.39122 11C1.3974 11 1.40358 11 1.40978 11C1.41597 11 1.42218 11 1.42839 11C1.43461 11 1.44083 11 1.44707 11C1.45331 11 1.45955 11 1.46581 11C1.47207 11 1.47834 11 1.48461 11C1.49089 11 1.49718 11 1.50348 11C1.50978 11 1.51609 11 1.52241 11C1.52872 11 1.53505 11 1.54139 11C1.54773 11 1.55408 11 1.56044 11C1.5668 11 1.57317 11 1.57955 11C1.58593 11 1.59232 11 1.59872 11C1.60512 11 1.61153 11 1.61795 11C1.62437 11 1.63079 11 1.63723 11C1.64367 11 1.65012 11 1.65658 11C1.66304 11 1.6695 11 1.67598 11C1.68246 11 1.68895 11 1.69544 11C1.70194 11 1.70845 11 1.71496 11C1.72148 11 1.728 11 1.73454 11C1.74107 11 1.74761 11 1.75417 11C1.76072 11 1.76728 11 1.77386 11C1.78043 11 1.78701 11 1.7936 11C1.80019 11 1.80679 11 1.8134 11C1.82001 11 1.82662 11 1.83325 11C1.83988 11 1.84651 11 1.85316 11C1.8598 11 1.86646 11 1.87312 11C1.87978 11 1.88646 11 1.89314 11C1.89982 11 1.90651 11 1.91321 11C1.9199 11 1.92661 11 1.93333 11C1.94004 11 1.94677 11 1.9535 11C1.96023 11 1.96698 11 1.97373 11C1.98048 11 1.98724 11 1.994 11C2.00077 11 2.00755 11 2.01433 11C2.02112 11 2.02791 11 2.03471 11C2.04151 11 2.04832 11 2.05514 11C2.06196 11 2.06878 11 2.07562 11C2.08245 11 2.0893 11 2.09615 11C2.103 11 2.10986 11 2.11672 11C2.12359 11 2.13047 11 2.13735 11C2.14423 11 2.15112 11 2.15802 11C2.16492 11 2.17183 11 2.17875 11C2.18566 11 2.19258 11 2.19951 11C2.20645 11 2.21338 11 2.22033 11C2.22728 11 2.23423 11 2.24119 11C2.24815 11 2.25512 11 2.2621 11C2.26908 11 2.27606 11 2.28306 11C2.29005 11 2.29705 11 2.30406 11C2.31106 11 2.31808 11 2.3251 11C2.33212 11 2.33915 11 2.34619 11C2.35323 11 2.36027 11 2.36732 11C2.37437 11 2.38143 11 2.3885 11C2.39556 11 2.40264 11 2.40972 11C2.4168 11 2.42389 11 2.43098 11C2.43807 11 2.44518 11 2.45228 11C2.45939 11 2.46651 11 2.47363 11C2.48075 11 2.48788 11 2.49502 11C2.50216 11 2.5093 11 2.51645 11C2.5236 11 2.53076 11 2.53792 11C2.54508 11 2.55225 11 2.55943 11C2.56661 11 2.57379 11 2.58098 11C2.58817 11 2.59537 11 2.60257 11C2.60977 11 2.61698 11 2.6242 11C2.63141 11 2.63864 11 2.64586 11C2.65309 11 2.66033 11 2.66757 11C2.67481 11 2.68206 11 2.68931 11C2.69657 11 2.70383 11 2.71109 11C2.71836 11 2.72563 11 2.73291 11C2.74019 11 2.74747 11 2.75477 11C2.76206 11 2.76935 11 2.77666 11C2.78396 11 2.79127 11 2.79858 11C2.8059 11 2.81322 11 2.82054 11C2.82787 11 2.8352 11 2.84254 11C2.84988 11 2.85722 11 2.86457 11C2.87192 11 2.87927 11 2.88663 11C2.89399 11 2.90136 11 2.90873 11C2.9161 11 2.92348 11 2.93086 11C2.93825 11 2.94563 11 2.95303 11C2.96042 11 2.96782 11 2.97522 11C2.98263 11 2.99004 11 2.99745 11C3.00487 11 3.01229 11 3.01971 11C3.02714 11 3.03457 11 3.042 11C3.04944 11 3.05688 11 3.06433 11C3.07177 11 3.07922 11 3.08668 11C3.09413 11 3.1016 11 3.10906 11C3.11653 11 3.124 11 3.13147 11C3.13895 11 3.14643 11 3.15391 11C3.1614 11 3.16889 11 3.17638 11C3.18388 11 3.19138 11 3.19888 11C3.20638 11 3.21389 11 3.22141 11C3.22892 11 3.23644 11 3.24396 11C3.25148 11 3.25901 11 3.26654 11C3.27407 11 3.28161 11 3.28915 11C3.29669 11 3.30423 11 3.31178 11C3.31933 11 3.32688 11 3.33444 11C3.34199 11 3.34955 11 3.35712 11C3.36469 11 3.37226 11 3.37983 11C3.3874 11 3.39498 11 3.40256 11C3.41014 11 3.41773 11 3.42532 11C3.43291 11 3.4405 11 3.4481 11C3.4557 11 3.4633 11 3.4709 11C3.47851 11 3.48612 11 3.49373 11C3.50134 11 3.50896 11 3.51658 11C3.5242 11 3.53182 11 3.53945 11C3.54708 11 3.55471 11 3.56234 11C3.56998 11 3.57762 11 3.58526 11C3.5929 11 3.60054 11 3.60819 11C3.61584 11 3.62349 11 3.63115 11C3.6388 11 3.64646 11 3.65412 11C3.66179 11 3.66945 11 3.67712 11C3.68479 11 3.69246 11 3.70013 11C3.70781 11 3.71548 11 3.72316 11C3.73084 11 3.73853 11 3.74622 11C3.7539 11 3.76159 11 3.76928 11C3.77698 11 3.78467 11 3.79237 11C3.80007 11 3.80777 11 3.81547 11C3.82318 11 3.83088 11 3.83859 11C3.8463 11 3.85401 11 3.86173 11C3.86944 11 3.87716 11 3.88488 11C3.8926 11 3.90032 11 3.90805 11C3.91577 11 3.9235 11 3.93123 11C3.93896 11 3.94669 11 3.95442 11C3.96216 11 3.9699 11 3.97764 11C3.98537 11 3.99312 11 4.00086 11C4.0086 11 4.01635 11 4.0241 11C4.03185 11 4.0396 11 4.04735 11C4.0551 11 4.06285 11 4.07061 11C4.07837 11 4.08612 11 4.09388 11C4.10165 11 4.10941 11 4.11717 11C4.12494 11 4.1327 11 4.14047 11C4.14824 11 4.15601 11 4.16378 11C4.17155 11 4.17932 11 4.1871 11C4.19487 11 4.20265 11 4.21043 11C4.2182 11 4.22598 11 4.23376 11C4.24154 11 4.24933 11 4.25711 11C4.2649 11 4.27268 11 4.28047 11C4.28825 11 4.29604 11 4.30383 11C4.31162 11 4.31941 11 4.3272 11C4.335 11 4.34279 11 4.35058 11C4.35838 11 4.36617 11 4.37397 11C4.38177 11 4.38957 11 4.39736 11C4.40516 11 4.41296 11 4.42076 11C4.42857 11 4.43637 11 4.44417 11C4.45197 11 4.45978 11 4.46758 11C4.47539 11 4.48319 11 4.491 11C4.4988 11 4.50661 11 4.51442 11C4.52223 11 4.53003 11 4.53784 11C4.54565 11 4.55346 11 4.56127 11C4.56908 11 4.57689 11 4.5847 11C4.59251 11 4.60032 11 4.60814 11C4.61595 11 4.62376 11 4.63157 11C4.63939 11 4.6472 11 4.65501 11C4.66283 11 4.67064 11 4.67845 11C4.68627 11 4.69408 11 4.7019 11C4.70971 11 4.71752 11 4.72534 11C4.73315 11 4.74097 11 4.74878 11C4.7566 11 4.76441 11 4.77223 11C4.78004 11 4.78785 11 4.79567 11C4.80348 11 4.8113 11 4.81911 11C4.82692 11 4.83474 11 4.84255 11C4.85036 11 4.85818 11 4.86599 11C4.8738 11 4.88162 11 4.88943 11C4.89724 11 4.90505 11 4.91286 11C4.92067 11 4.92848 11 4.93629 11C4.9441 11 4.95191 11 4.95972 11C4.96753 11 4.97534 11 4.98315 11C4.99095 11 4.99876 11 5.00657 11C5.01437 11 5.02218 11 5.02998 11C5.03779 11 5.04559 11 5.05339 11C5.0612 11 5.069 11 5.0768 11C5.0846 11 5.0924 11 5.1002 11C5.108 11 5.1158 11 5.12359 11C5.13139 11 5.13918 11 5.14698 11C5.15477 11 5.16257 11 5.17036 11C5.17815 11 5.18594 11 5.19373 11C5.20152 11 5.20931 11 5.2171 11C5.22488 11 5.23267 11 5.24045 11C5.24824 11 5.25602 11 5.2638 11C5.27158 11 5.27936 11 5.28714 11C5.29491 11 5.30269 11 5.31047 11C5.31824 11 5.32601 11 5.33378 11C5.34155 11 5.34932 11 5.35709 11C5.36486 11 5.37263 11 5.38039 11C5.38815 11 5.39592 11 5.40368 11C5.41144 11 5.41919 11 5.42695 11C5.43471 11 5.44246 11 5.45021 11C5.45796 11 5.46571 11 5.47346 11C5.48121 11 5.48896 11 5.4967 11C5.50444 11 5.51218 11 5.51992 11C5.52766 11 5.5354 11 5.54313 11C5.55087 11 5.5586 11 5.56633 11C5.57406 11 5.58179 11 5.58951 11C5.59724 11 5.60496 11 5.61268 11C5.6204 11 5.62811 11 5.63583 11C5.64354 11 5.65126 11 5.65896 11C5.66667 11 5.67438 11 5.68208 11C5.68979 11 5.69749 11 5.70519 11C5.71288 11 5.72058 11 5.72827 11C5.73596 11 5.74365 11 5.75134 11C5.75903 11 5.76671 11 5.77439 11C5.78207 11 5.78975 11 5.79742 11C5.8051 11 5.81277 11 5.82044 11C5.8281 11 5.83577 11 5.84343 11C5.85109 11 5.85875 11 5.8664 11C5.87406 11 5.88171 11 5.88936 11C5.89701 11 5.90465 11 5.91229 11C5.91993 11 5.92757 11 5.93521 11C5.94284 11 5.95047 11 5.9581 11C5.96573 11 5.97335 11 5.98097 11C5.98859 11 5.99621 11 6.00382 11C6.01143 11 6.01904 11 6.02664 11C6.03425 11 6.04185 11 6.04945 11C6.05705 11 6.06464 11 6.07223 11C6.07982 11 6.0874 11 6.09499 11C6.10257 11 6.11014 11 6.11772 11C6.12529 11 6.13286 11 6.14043 11C6.14799 11 6.15555 11 6.16311 11C6.17067 11 6.17822 11 6.18577 11C6.19331 11 6.20086 11 6.2084 11C6.21594 11 6.22347 11 6.231 11C6.23853 11 6.24606 11 6.25358 11C6.26111 11 6.26862 11 6.27614 11C6.28365 11 6.29116 11 6.29866 11C6.30616 11 6.31366 11 6.32116 11C6.32865 11 6.33614 11 6.34363 11C6.35111 11 6.35859 11 6.36607 11C6.37354 11 6.38101 11 6.38848 11C6.39594 11 6.4034 11 6.41086 11C6.41831 11 6.42576 11 6.43321 11C6.44066 11 6.4481 11 6.45553 11C6.46297 11 6.4704 11 6.47782 11C6.48525 11 6.49267 11 6.50008 11C6.5075 11 6.5149 11 6.52231 11C6.52971 11 6.53711 11 6.5445 11C6.5519 11 6.55929 11 6.56667 11C6.57405 11 6.58143 11 6.5888 11C6.59617 11 6.60354 11 6.6109 11C6.61826 11 6.62561 11 6.63296 11C6.64031 11 6.64765 11 6.65499 11C6.66233 11 6.66966 11 6.67698 11C6.68431 11 6.69163 11 6.69895 11C6.70626 11 6.71357 11 6.72087 11C6.72817 11 6.73547 11 6.74276 11C6.75005 11 6.75733 11 6.76461 11C6.77189 11 6.77916 11 6.78643 11C6.79369 11 6.80096 11 6.80821 11C6.81546 11 6.82271 11 6.82995 11C6.83719 11 6.84443 11 6.85166 11C6.85888 11 6.86611 11 6.87332 11C6.88054 11 6.88775 11 6.89495 11C6.90215 11 6.90935 11 6.91654 11C6.92373 11 6.93091 11 6.93809 11C6.94526 11 6.95243 11 6.9596 11C6.96676 11 6.97392 11 6.98107 11C6.98821 11 6.99536 11 7.00249 11C7.00963 11 7.01676 11 7.02388 11C7.031 11 7.03812 11 7.04523 11C7.05233 11 7.05944 11 7.06653 11C7.07362 11 7.08071 11 7.08779 11C7.09487 11 7.10194 11 7.10901 11C7.11608 11 7.12313 11 7.13019 11C7.13724 11 7.14428 11 7.15132 11C7.15835 11 7.16538 11 7.1724 11C7.17943 11 7.18644 11 7.19345 11C7.20046 11 7.20745 11 7.21445 11C7.22144 11 7.22842 11 7.2354 11C7.24238 11 7.24935 11 7.25631 11C7.26327 11 7.27022 11 7.27717 11C7.28411 11 7.29105 11 7.29798 11C7.30491 11 7.31184 11 7.31875 11C7.32567 11 7.33257 11 7.33947 11C7.34637 11 7.35326 11 7.36014 11C7.36703 11 7.3739 11 7.38077 11C7.38764 11 7.39449 11 7.40135 11C7.4082 11 7.41504 11 7.42187 11C7.42871 11 7.43553 11 7.44235 11C7.44917 11 7.45598 11 7.46278 11C7.46958 11 7.47637 11 7.48316 11C7.48994 11 7.49671 11 7.50348 11C7.51025 11 7.51701 11 7.52376 11C7.53051 11 7.53725 11 7.54398 11C7.55071 11 7.55744 11 7.56415 11C7.57087 11 7.57758 11 7.58427 11C7.59097 11 7.59766 11 7.60434 11C7.61102 11 7.61769 11 7.62436 11C7.63102 11 7.63767 11 7.64432 11C7.65096 11 7.6576 11 7.66422 11C7.67085 11 7.67747 11 7.68407 11C7.69068 11 7.69728 11 7.70387 11C7.71046 11 7.71704 11 7.72361 11C7.73019 11 7.73675 11 7.7433 11C7.74985 11 7.7564 11 7.76293 11C7.76946 11 7.77599 11 7.7825 11C7.78902 11 7.79553 11 7.80202 11C7.80852 11 7.815 11 7.82148 11C7.82796 11 7.83443 11 7.84088 11C7.84734 11 7.85379 11 7.86023 11C7.86667 11 7.87309 11 7.87951 11C7.88593 11 7.89234 11 7.89874 11C7.90514 11 7.91153 11 7.91791 11C7.92428 11 7.93065 11 7.93701 11C7.94337 11 7.94972 11 7.95606 11C7.9624 11 7.96873 11 7.97505 11C7.98136 11 7.98767 11 7.99397 11C8.00027 11 8.00656 11 8.01283 11C8.01911 11 8.02538 11 8.03164 11C8.03789 11 8.04414 11 8.05038 11C8.05661 11 8.06284 11 8.06905 11C8.07527 11 8.08147 11 8.08767 11C8.09386 11 8.10004 11 8.10622 11C8.11239 11 8.11855 11 8.1247 11C8.13085 11 8.13699 11 8.14312 11C8.14925 11 8.15537 11 8.16148 11C8.16759 11 8.17369 11 8.17977 11C8.18586 11 8.19193 11 8.198 11C8.20406 11 8.21012 11 8.21616 11C8.2222 11 8.22823 11 8.23425 11C8.24027 11 8.24628 11 8.25228 11C8.25828 11 8.26426 11 8.27024 11C8.27621 11 8.28218 11 8.28813 11C8.29408 11 8.30002 11 8.30595 11C8.31188 11 8.3178 11 8.32371 11C8.32962 11 8.33551 11 8.3414 11C8.34728 11 8.35315 11 8.35901 11C8.36487 11 8.37072 11 8.37656 11C8.3824 11 8.38822 11 8.39404 11C8.39985 11 8.40565 11 8.41144 11C8.41723 11 8.42301 11 8.42878 11C8.43455 11 8.4403 11 8.44604 11C8.45179 11 8.45752 11 8.46323 11C8.46895 11 8.47466 11 8.48035 11C8.48605 11 8.49173 11 8.4974 11C8.50307 11 8.50873 11 8.51438 11C8.52002 11 8.52565 11 8.53128 11C8.5369 11 8.54251 11 8.5481 11C8.5537 11 8.55928 11 8.56486 11C8.57043 11 8.57599 11 8.58153 11C8.58708 11 8.59261 11 8.59813 11C8.60366 11 8.60917 11 8.61466 11C8.62016 11 8.62564 11 8.63111 11C8.63658 11 8.64204 11 8.64749 11C8.65293 11 8.65836 11 8.66378 11C8.6692 11 8.67461 11 8.68 11C8.6854 11 8.69078 11 8.69615 11C8.70151 11 8.70687 11 8.71221 11C8.71755 11 8.72288 11 8.7282 11C8.73351 11 8.73882 11 8.7441 11C8.74939 11 8.75467 11 8.75993 11C8.76519 11 8.77044 11 8.77568 11C8.78092 11 8.78614 11 8.79135 11C8.79656 11 8.80175 11 8.80694 11C8.81212 11 8.81729 11 8.82244 11C8.8276 11 8.83274 11 8.83787 11C8.84299 11 8.84811 11 8.85321 11C8.85831 11 8.8634 11 8.86847 11C8.87354 11 8.8786 11 8.88365 11C8.88869 11 8.89373 11 8.89874 11C8.90376 11 8.90877 11 8.91376 11C8.91875 11 8.92372 11 8.92868 11C8.93365 11 8.93859 11 8.94353 11C8.94846 11 8.95338 11 8.95829 11C8.96319 11 8.96808 11 8.97296 11C8.97784 11 8.9827 11 8.98755 11C8.9924 11 8.99723 11 9.00205 11C9.00687 11 9.01167 11 9.01647 11C9.02126 11 9.02603 11 9.03079 11C9.03556 11 9.0403 11 9.04504 11C9.04977 11 9.05449 11 9.05919 11C9.06389 11 9.06858 11 9.07326 11C9.07793 11 9.08259 11 9.08723 11C9.09188 11 9.09651 11 9.10112 11C9.10574 11 9.11034 11 9.11492 11C9.11951 11 9.12408 11 9.12863 11C9.13319 11 9.13773 11 9.14225 11C9.14678 11 9.15129 11 9.15578 11C9.16027 11 9.16475 11 9.16922 11C9.17368 11 9.17813 11 9.18256 11C9.187 11 9.19142 11 9.19582 11C9.20022 11 9.20461 11 9.20898 11C9.21336 11 9.21771 11 9.22205 11C9.22639 11 9.23072 11 9.23503 11C9.23934 11 9.24363 11 9.24791 11C9.25219 11 9.25646 11 9.2607 11C9.26495 11 9.26918 11 9.2734 11C9.27762 11 9.28182 11 9.286 11C9.29018 11 9.29435 11 9.29851 11C9.30266 11 9.3068 11 9.31092 11C9.31504 11 9.31914 11 9.32323 11C9.32732 11 9.33139 11 9.33545 11C9.3395 11 9.34354 11 9.34757 11C9.35159 11 9.3556 11 9.35959 11C9.36359 11 9.36756 11 9.37152 11C9.37548 11 9.37942 11 9.38335 11C9.38727 11 9.39118 11 9.39508 11C9.39897 11 9.40285 11 9.40671 11C9.41057 11 9.41441 11 9.41824 11C9.42207 11 9.42588 11 9.42967 11C9.43347 11 9.43724 11 9.44101 11C9.44477 11 9.44851 11 9.45224 11C9.45596 11 9.45967 11 9.46337 11C9.46706 11 9.47074 11 9.4744 11C9.47806 11 9.4817 11 9.48532 11C9.48895 11 9.49256 11 9.49615 11C9.49974 11 9.50332 11 9.50687 11C9.51043 11 9.51397 11 9.51749 11C9.52102 11 9.52452 11 9.52801 11C9.5315 11 9.53497 11 9.53842 11C9.54188 11 9.54531 11 9.54873 11C9.55215 11 9.55555 11 9.55893 11C9.56232 11 9.56568 11 9.56903 11C9.57238 11 9.57571 11 9.57903 11C9.58234 11 9.58564 11 9.58891 11C9.59219 11 9.59545 11 9.59869 11C9.60194 11 9.60516 11 9.60837 11C9.61158 11 9.61476 11 9.61794 11C9.62111 11 9.62426 11 9.6274 11C9.63053 11 9.63365 11 9.63675 11C9.63985 11 9.64293 11 9.64599 11C9.64905 11 9.6521 11 9.65512 11C9.65815 11 9.66116 11 9.66415 11C9.66714 11 9.67011 11 9.67307 11C9.67602 11 9.67895 11 9.68187 11C9.68479 11 9.68769 11 9.69057 11C9.69345 11 9.69631 11 9.69915 11C9.70199 11 9.70482 11 9.70762 11C9.71043 11 9.71321 11 9.71598 11C9.71875 11 9.7215 11 9.72423 11C9.72696 11 9.72968 11 9.73237 11C9.73506 11 9.73774 11 9.74039 11C9.74305 11 9.74568 11 9.7483 11C9.75092 11 9.75352 11 9.7561 11C9.75868 11 9.76124 11 9.76378 11C9.76632 11 9.76884 11 9.77135 11C9.77385 11 9.77634 11 9.7788 11C9.78127 11 9.78371 11 9.78614 11C9.78856 11 9.79097 11 9.79336 11C9.79575 11 9.79811 11 9.80046 11C9.80281 11 9.80514 11 9.80745 11C9.80976 11 9.81205 11 9.81432 11C9.81659 11 9.81884 11 9.82108 11C9.82331 11 9.82552 11 9.82771 11C9.8299 11 9.83208 11 9.83423 11C9.83638 11 9.83851 11 9.84063 11C9.84274 11 9.84483 11 9.84691 11C9.84898 11 9.85103 11 9.85307 11C9.8551 11 9.85711 11 9.85911 11C9.8611 11 9.86307 11 9.86502 11C9.86698 11 9.86891 11 9.87082 11C9.87274 11 9.87463 11 9.8765 11C9.87837 11 9.88022 11 9.88205 11C9.88389 11 9.8857 11 9.88749 11C9.88928 11 9.89105 11 9.8928 11C9.89455 11 9.89628 11 9.89799 11C9.8997 11 9.90138 11 9.90305 11C9.90472 11 9.90637 11 9.90799 11C9.90962 11 9.91122 11 9.91281 11C9.91439 11 9.91596 11 9.9175 11C9.91904 11 9.92057 11 9.92207 11C9.92357 11 9.92505 11 9.92651 11C9.92797 11 9.92941 11 9.93082 11C9.93224 11 9.93364 11 9.93501 11C9.93639 11 9.93774 11 9.93908 11C9.94041 11 9.94172 11 9.94301 11C9.9443 11 9.94557 11 9.94682 11C9.94807 11 9.9493 11 9.9505 11C9.95171 11 9.95289 11 9.95405 11C9.95521 11 9.95636 11 9.95748 11C9.9586 11 9.95969 11 9.96077 11C9.96185 11 9.9629 11 9.96393 11C9.96497 11 9.96598 11 9.96697 11C9.96796 11 9.96893 11 9.96987 11C9.97082 11 9.97174 11 9.97265 11C9.97355 11 9.97443 11 9.97529 11C9.97615 11 9.97698 11 9.9778 11C9.97861 11 9.97941 11 9.98018 11C9.98095 11 9.9817 11 9.98242 11C9.98315 11 9.98385 11 9.98454 11C9.98522 11 9.98588 11 9.98652 11C9.98715 11 9.98777 11 9.98836 11C9.98895 11 9.98952 11 9.99007 11C9.99062 11 9.99115 11 9.99165 11C9.99215 11 9.99263 11 9.99309 11C9.99355 11 9.99399 11 9.9944 11C9.99481 11 9.9952 11 9.99557 11C9.99594 11 9.99628 11 9.9966 11C9.99693 11 9.99723 11 9.9975 11C9.99778 11 9.99803 11 9.99826 11C9.9985 11 9.9987 11 9.99889 11C9.99907 11 9.99924 11 9.99937 11C9.99951 11 9.99963 11 9.99972 11C9.99981 11 9.99988 11 9.99993 11C9.99998 11 10 11 10 10C10 9 9.99998 9 9.99993 9C9.99988 9 9.99981 9 9.99972 9C9.99963 9 9.99951 9 9.99937 9C9.99924 9 9.99907 9 9.99889 9C9.9987 9 9.9985 9 9.99826 9C9.99803 9 9.99778 9 9.9975 9C9.99723 9 9.99693 9 9.9966 9C9.99628 9 9.99594 9 9.99557 9C9.9952 9 9.99481 9 9.9944 9C9.99399 9 9.99355 9 9.99309 9C9.99263 9 9.99215 9 9.99165 9C9.99115 9 9.99062 9 9.99007 9C9.98952 9 9.98895 9 9.98836 9C9.98777 9 9.98715 9 9.98652 9C9.98588 9 9.98522 9 9.98454 9C9.98385 9 9.98315 9 9.98242 9C9.9817 9 9.98095 9 9.98018 9C9.97941 9 9.97861 9 9.9778 9C9.97698 9 9.97615 9 9.97529 9C9.97443 9 9.97355 9 9.97265 9C9.97174 9 9.97082 9 9.96987 9C9.96893 9 9.96796 9 9.96697 9C9.96598 9 9.96497 9 9.96393 9C9.9629 9 9.96185 9 9.96077 9C9.95969 9 9.9586 9 9.95748 9C9.95636 9 9.95521 9 9.95405 9C9.95289 9 9.95171 9 9.9505 9C9.9493 9 9.94807 9 9.94682 9C9.94557 9 9.9443 9 9.94301 9C9.94172 9 9.94041 9 9.93908 9C9.93774 9 9.93639 9 9.93501 9C9.93364 9 9.93224 9 9.93082 9C9.92941 9 9.92797 9 9.92651 9C9.92505 9 9.92357 9 9.92207 9C9.92057 9 9.91904 9 9.9175 9C9.91596 9 9.91439 9 9.91281 9C9.91122 9 9.90962 9 9.90799 9C9.90637 9 9.90472 9 9.90305 9C9.90138 9 9.8997 9 9.89799 9C9.89628 9 9.89455 9 9.8928 9C9.89105 9 9.88928 9 9.88749 9C9.8857 9 9.88389 9 9.88205 9C9.88022 9 9.87837 9 9.8765 9C9.87463 9 9.87274 9 9.87082 9C9.86891 9 9.86698 9 9.86502 9C9.86307 9 9.8611 9 9.85911 9C9.85711 9 9.8551 9 9.85307 9C9.85103 9 9.84898 9 9.84691 9C9.84483 9 9.84274 9 9.84063 9C9.83851 9 9.83638 9 9.83423 9C9.83208 9 9.8299 9 9.82771 9C9.82552 9 9.82331 9 9.82108 9C9.81884 9 9.81659 9 9.81432 9C9.81205 9 9.80976 9 9.80745 9C9.80514 9 9.80281 9 9.80046 9C9.79811 9 9.79575 9 9.79336 9C9.79097 9 9.78856 9 9.78614 9C9.78371 9 9.78127 9 9.7788 9C9.77634 9 9.77385 9 9.77135 9C9.76884 9 9.76632 9 9.76378 9C9.76124 9 9.75868 9 9.7561 9C9.75352 9 9.75092 9 9.7483 9C9.74568 9 9.74305 9 9.74039 9C9.73774 9 9.73506 9 9.73237 9C9.72968 9 9.72696 9 9.72423 9C9.7215 9 9.71875 9 9.71598 9C9.71321 9 9.71043 9 9.70762 9C9.70482 9 9.70199 9 9.69915 9C9.69631 9 9.69345 9 9.69057 9C9.68769 9 9.68479 9 9.68187 9C9.67895 9 9.67602 9 9.67307 9C9.67011 9 9.66714 9 9.66415 9C9.66116 9 9.65815 9 9.65512 9C9.6521 9 9.64905 9 9.64599 9C9.64293 9 9.63985 9 9.63675 9C9.63365 9 9.63053 9 9.6274 9C9.62426 9 9.62111 9 9.61794 9C9.61476 9 9.61158 9 9.60837 9C9.60516 9 9.60194 9 9.59869 9C9.59545 9 9.59219 9 9.58891 9C9.58564 9 9.58234 9 9.57903 9C9.57571 9 9.57238 9 9.56903 9C9.56568 9 9.56232 9 9.55893 9C9.55555 9 9.55215 9 9.54873 9C9.54531 9 9.54188 9 9.53842 9C9.53497 9 9.5315 9 9.52801 9C9.52452 9 9.52102 9 9.51749 9C9.51397 9 9.51043 9 9.50687 9C9.50332 9 9.49974 9 9.49615 9C9.49256 9 9.48895 9 9.48532 9C9.4817 9 9.47806 9 9.4744 9C9.47074 9 9.46706 9 9.46337 9C9.45967 9 9.45596 9 9.45224 9C9.44851 9 9.44477 9 9.44101 9C9.43724 9 9.43347 9 9.42967 9C9.42588 9 9.42207 9 9.41824 9C9.41441 9 9.41057 9 9.40671 9C9.40285 9 9.39897 9 9.39508 9C9.39118 9 9.38727 9 9.38335 9C9.37942 9 9.37548 9 9.37152 9C9.36756 9 9.36359 9 9.35959 9C9.3556 9 9.35159 9 9.34757 9C9.34354 9 9.3395 9 9.33545 9C9.33139 9 9.32732 9 9.32323 9C9.31914 9 9.31504 9 9.31092 9C9.3068 9 9.30266 9 9.29851 9C9.29435 9 9.29018 9 9.286 9C9.28182 9 9.27762 9 9.2734 9C9.26918 9 9.26495 9 9.2607 9C9.25646 9 9.25219 9 9.24791 9C9.24363 9 9.23934 9 9.23503 9C9.23072 9 9.22639 9 9.22205 9C9.21771 9 9.21336 9 9.20898 9C9.20461 9 9.20022 9 9.19582 9C9.19142 9 9.187 9 9.18256 9C9.17813 9 9.17368 9 9.16922 9C9.16475 9 9.16027 9 9.15578 9C9.15129 9 9.14678 9 9.14225 9C9.13773 9 9.13319 9 9.12863 9C9.12408 9 9.11951 9 9.11492 9C9.11034 9 9.10574 9 9.10112 9C9.09651 9 9.09188 9 9.08723 9C9.08259 9 9.07793 9 9.07326 9C9.06858 9 9.06389 9 9.05919 9C9.05449 9 9.04977 9 9.04504 9C9.0403 9 9.03556 9 9.03079 9C9.02603 9 9.02126 9 9.01647 9C9.01167 9 9.00687 9 9.00205 9C8.99723 9 8.9924 9 8.98755 9C8.9827 9 8.97784 9 8.97296 9C8.96808 9 8.96319 9 8.95829 9C8.95338 9 8.94846 9 8.94353 9C8.93859 9 8.93365 9 8.92868 9C8.92372 9 8.91875 9 8.91376 9C8.90877 9 8.90376 9 8.89874 9C8.89373 9 8.88869 9 8.88365 9C8.8786 9 8.87354 9 8.86847 9C8.8634 9 8.85831 9 8.85321 9C8.84811 9 8.84299 9 8.83787 9C8.83274 9 8.8276 9 8.82244 9C8.81729 9 8.81212 9 8.80694 9C8.80175 9 8.79656 9 8.79135 9C8.78614 9 8.78092 9 8.77568 9C8.77044 9 8.76519 9 8.75993 9C8.75467 9 8.74939 9 8.7441 9C8.73882 9 8.73351 9 8.7282 9C8.72288 9 8.71755 9 8.71221 9C8.70687 9 8.70151 9 8.69615 9C8.69078 9 8.6854 9 8.68 9C8.67461 9 8.6692 9 8.66378 9C8.65836 9 8.65293 9 8.64749 9C8.64204 9 8.63658 9 8.63111 9C8.62564 9 8.62016 9 8.61466 9C8.60917 9 8.60366 9 8.59813 9C8.59261 9 8.58708 9 8.58153 9C8.57599 9 8.57043 9 8.56486 9C8.55928 9 8.5537 9 8.5481 9C8.54251 9 8.5369 9 8.53128 9C8.52565 9 8.52002 9 8.51438 9C8.50873 9 8.50307 9 8.4974 9C8.49173 9 8.48605 9 8.48035 9C8.47466 9 8.46895 9 8.46323 9C8.45752 9 8.45179 9 8.44604 9C8.4403 9 8.43455 9 8.42878 9C8.42301 9 8.41723 9 8.41144 9C8.40565 9 8.39985 9 8.39404 9C8.38822 9 8.3824 9 8.37656 9C8.37072 9 8.36487 9 8.35901 9C8.35315 9 8.34728 9 8.3414 9C8.33551 9 8.32962 9 8.32371 9C8.3178 9 8.31188 9 8.30595 9C8.30002 9 8.29408 9 8.28813 9C8.28218 9 8.27621 9 8.27024 9C8.26426 9 8.25828 9 8.25228 9C8.24628 9 8.24027 9 8.23425 9C8.22823 9 8.2222 9 8.21616 9C8.21012 9 8.20406 9 8.198 9C8.19193 9 8.18586 9 8.17977 9C8.17369 9 8.16759 9 8.16148 9C8.15537 9 8.14925 9 8.14312 9C8.13699 9 8.13085 9 8.1247 9C8.11855 9 8.11239 9 8.10622 9C8.10004 9 8.09386 9 8.08767 9C8.08147 9 8.07527 9 8.06905 9C8.06284 9 8.05661 9 8.05038 9C8.04414 9 8.03789 9 8.03164 9C8.02538 9 8.01911 9 8.01283 9C8.00656 9 8.00027 9 7.99397 9C7.98767 9 7.98136 9 7.97505 9C7.96873 9 7.9624 9 7.95606 9C7.94972 9 7.94337 9 7.93701 9C7.93065 9 7.92428 9 7.91791 9C7.91153 9 7.90514 9 7.89874 9C7.89234 9 7.88593 9 7.87951 9C7.87309 9 7.86667 9 7.86023 9C7.85379 9 7.84734 9 7.84088 9C7.83443 9 7.82796 9 7.82148 9C7.815 9 7.80852 9 7.80202 9C7.79553 9 7.78902 9 7.7825 9C7.77599 9 7.76946 9 7.76293 9C7.7564 9 7.74985 9 7.7433 9C7.73675 9 7.73019 9 7.72361 9C7.71704 9 7.71046 9 7.70387 9C7.69728 9 7.69068 9 7.68407 9C7.67747 9 7.67085 9 7.66422 9C7.6576 9 7.65096 9 7.64432 9C7.63767 9 7.63102 9 7.62436 9C7.61769 9 7.61102 9 7.60434 9C7.59766 9 7.59097 9 7.58427 9C7.57758 9 7.57087 9 7.56415 9C7.55744 9 7.55071 9 7.54398 9C7.53725 9 7.53051 9 7.52376 9C7.51701 9 7.51025 9 7.50348 9C7.49671 9 7.48994 9 7.48316 9C7.47637 9 7.46958 9 7.46278 9C7.45598 9 7.44917 9 7.44235 9C7.43553 9 7.42871 9 7.42187 9C7.41504 9 7.4082 9 7.40135 9C7.39449 9 7.38764 9 7.38077 9C7.3739 9 7.36703 9 7.36014 9C7.35326 9 7.34637 9 7.33947 9C7.33257 9 7.32567 9 7.31875 9C7.31184 9 7.30491 9 7.29798 9C7.29105 9 7.28411 9 7.27717 9C7.27022 9 7.26327 9 7.25631 9C7.24935 9 7.24238 9 7.2354 9C7.22842 9 7.22144 9 7.21445 9C7.20745 9 7.20046 9 7.19345 9C7.18644 9 7.17943 9 7.1724 9C7.16538 9 7.15835 9 7.15132 9C7.14428 9 7.13724 9 7.13019 9C7.12313 9 7.11608 9 7.10901 9C7.10194 9 7.09487 9 7.08779 9C7.08071 9 7.07362 9 7.06653 9C7.05944 9 7.05233 9 7.04523 9C7.03812 9 7.031 9 7.02388 9C7.01676 9 7.00963 9 7.00249 9C6.99536 9 6.98821 9 6.98107 9C6.97392 9 6.96676 9 6.9596 9C6.95243 9 6.94526 9 6.93809 9C6.93091 9 6.92373 9 6.91654 9C6.90935 9 6.90215 9 6.89495 9C6.88775 9 6.88054 9 6.87332 9C6.86611 9 6.85888 9 6.85166 9C6.84443 9 6.83719 9 6.82995 9C6.82271 9 6.81546 9 6.80821 9C6.80096 9 6.79369 9 6.78643 9C6.77916 9 6.77189 9 6.76461 9C6.75733 9 6.75005 9 6.74276 9C6.73547 9 6.72817 9 6.72087 9C6.71357 9 6.70626 9 6.69895 9C6.69163 9 6.68431 9 6.67698 9C6.66966 9 6.66233 9 6.65499 9C6.64765 9 6.64031 9 6.63296 9C6.62561 9 6.61826 9 6.6109 9C6.60354 9 6.59617 9 6.5888 9C6.58143 9 6.57405 9 6.56667 9C6.55929 9 6.5519 9 6.5445 9C6.53711 9 6.52971 9 6.52231 9C6.5149 9 6.5075 9 6.50008 9C6.49267 9 6.48525 9 6.47782 9C6.4704 9 6.46297 9 6.45553 9C6.4481 9 6.44066 9 6.43321 9C6.42576 9 6.41831 9 6.41086 9C6.4034 9 6.39594 9 6.38848 9C6.38101 9 6.37354 9 6.36607 9C6.35859 9 6.35111 9 6.34363 9C6.33614 9 6.32865 9 6.32116 9C6.31366 9 6.30616 9 6.29866 9C6.29116 9 6.28365 9 6.27614 9C6.26862 9 6.26111 9 6.25358 9C6.24606 9 6.23853 9 6.231 9C6.22347 9 6.21594 9 6.2084 9C6.20086 9 6.19331 9 6.18577 9C6.17822 9 6.17067 9 6.16311 9C6.15555 9 6.14799 9 6.14043 9C6.13286 9 6.12529 9 6.11772 9C6.11014 9 6.10257 9 6.09499 9C6.0874 9 6.07982 9 6.07223 9C6.06464 9 6.05705 9 6.04945 9C6.04185 9 6.03425 9 6.02664 9C6.01904 9 6.01143 9 6.00382 9C5.99621 9 5.98859 9 5.98097 9C5.97335 9 5.96573 9 5.9581 9C5.95047 9 5.94284 9 5.93521 9C5.92757 9 5.91993 9 5.91229 9C5.90465 9 5.89701 9 5.88936 9C5.88171 9 5.87406 9 5.8664 9C5.85875 9 5.85109 9 5.84343 9C5.83577 9 5.8281 9 5.82044 9C5.81277 9 5.8051 9 5.79742 9C5.78975 9 5.78207 9 5.77439 9C5.76671 9 5.75903 9 5.75134 9C5.74365 9 5.73596 9 5.72827 9C5.72058 9 5.71288 9 5.70519 9C5.69749 9 5.68979 9 5.68208 9C5.67438 9 5.66667 9 5.65896 9C5.65126 9 5.64354 9 5.63583 9C5.62811 9 5.6204 9 5.61268 9C5.60496 9 5.59724 9 5.58951 9C5.58179 9 5.57406 9 5.56633 9C5.5586 9 5.55087 9 5.54313 9C5.5354 9 5.52766 9 5.51992 9C5.51218 9 5.50444 9 5.4967 9C5.48896 9 5.48121 9 5.47346 9C5.46571 9 5.45796 9 5.45021 9C5.44246 9 5.43471 9 5.42695 9C5.41919 9 5.41144 9 5.40368 9C5.39592 9 5.38815 9 5.38039 9C5.37263 9 5.36486 9 5.35709 9C5.34932 9 5.34155 9 5.33378 9C5.32601 9 5.31824 9 5.31047 9C5.30269 9 5.29491 9 5.28714 9C5.27936 9 5.27158 9 5.2638 9C5.25602 9 5.24824 9 5.24045 9C5.23267 9 5.22488 9 5.2171 9C5.20931 9 5.20152 9 5.19373 9C5.18594 9 5.17815 9 5.17036 9C5.16257 9 5.15477 9 5.14698 9C5.13918 9 5.13139 9 5.12359 9C5.1158 9 5.108 9 5.1002 9C5.0924 9 5.0846 9 5.0768 9C5.069 9 5.0612 9 5.05339 9C5.04559 9 5.03779 9 5.02998 9C5.02218 9 5.01437 9 5.00657 9C4.99876 9 4.99095 9 4.98315 9C4.97534 9 4.96753 9 4.95972 9C4.95191 9 4.9441 9 4.93629 9C4.92848 9 4.92067 9 4.91286 9C4.90505 9 4.89724 9 4.88943 9C4.88162 9 4.8738 9 4.86599 9C4.85818 9 4.85036 9 4.84255 9C4.83474 9 4.82692 9 4.81911 9C4.8113 9 4.80348 9 4.79567 9C4.78785 9 4.78004 9 4.77223 9C4.76441 9 4.7566 9 4.74878 9C4.74097 9 4.73315 9 4.72534 9C4.71752 9 4.70971 9 4.7019 9C4.69408 9 4.68627 9 4.67845 9C4.67064 9 4.66283 9 4.65501 9C4.6472 9 4.63939 9 4.63157 9C4.62376 9 4.61595 9 4.60814 9C4.60032 9 4.59251 9 4.5847 9C4.57689 9 4.56908 9 4.56127 9C4.55346 9 4.54565 9 4.53784 9C4.53003 9 4.52223 9 4.51442 9C4.50661 9 4.4988 9 4.491 9C4.48319 9 4.47539 9 4.46758 9C4.45978 9 4.45197 9 4.44417 9C4.43637 9 4.42857 9 4.42076 9C4.41296 9 4.40516 9 4.39736 9C4.38957 9 4.38177 9 4.37397 9C4.36617 9 4.35838 9 4.35058 9C4.34279 9 4.335 9 4.3272 9C4.31941 9 4.31162 9 4.30383 9C4.29604 9 4.28825 9 4.28047 9C4.27268 9 4.2649 9 4.25711 9C4.24933 9 4.24154 9 4.23376 9C4.22598 9 4.2182 9 4.21043 9C4.20265 9 4.19487 9 4.1871 9C4.17932 9 4.17155 9 4.16378 9C4.15601 9 4.14824 9 4.14047 9C4.1327 9 4.12494 9 4.11717 9C4.10941 9 4.10165 9 4.09388 9C4.08612 9 4.07837 9 4.07061 9C4.06285 9 4.0551 9 4.04735 9C4.0396 9 4.03185 9 4.0241 9C4.01635 9 4.0086 9 4.00086 9C3.99312 9 3.98537 9 3.97764 9C3.9699 9 3.96216 9 3.95442 9C3.94669 9 3.93896 9 3.93123 9C3.9235 9 3.91577 9 3.90805 9C3.90032 9 3.8926 9 3.88488 9C3.87716 9 3.86944 9 3.86173 9C3.85401 9 3.8463 9 3.83859 9C3.83088 9 3.82318 9 3.81547 9C3.80777 9 3.80007 9 3.79237 9C3.78467 9 3.77698 9 3.76928 9C3.76159 9 3.7539 9 3.74622 9C3.73853 9 3.73084 9 3.72316 9C3.71548 9 3.70781 9 3.70013 9C3.69246 9 3.68479 9 3.67712 9C3.66945 9 3.66179 9 3.65412 9C3.64646 9 3.6388 9 3.63115 9C3.62349 9 3.61584 9 3.60819 9C3.60054 9 3.5929 9 3.58526 9C3.57762 9 3.56998 9 3.56234 9C3.55471 9 3.54708 9 3.53945 9C3.53182 9 3.5242 9 3.51658 9C3.50896 9 3.50134 9 3.49373 9C3.48612 9 3.47851 9 3.4709 9C3.4633 9 3.4557 9 3.4481 9C3.4405 9 3.43291 9 3.42532 9C3.41773 9 3.41014 9 3.40256 9C3.39498 9 3.3874 9 3.37983 9C3.37226 9 3.36469 9 3.35712 9C3.34955 9 3.34199 9 3.33444 9C3.32688 9 3.31933 9 3.31178 9C3.30423 9 3.29669 9 3.28915 9C3.28161 9 3.27407 9 3.26654 9C3.25901 9 3.25148 9 3.24396 9C3.23644 9 3.22892 9 3.22141 9C3.21389 9 3.20638 9 3.19888 9C3.19138 9 3.18388 9 3.17638 9C3.16889 9 3.1614 9 3.15391 9C3.14643 9 3.13895 9 3.13147 9C3.124 9 3.11653 9 3.10906 9C3.1016 9 3.09413 9 3.08668 9C3.07922 9 3.07177 9 3.06433 9C3.05688 9 3.04944 9 3.042 9C3.03457 9 3.02714 9 3.01971 9C3.01229 9 3.00487 9 2.99745 9C2.99004 9 2.98263 9 2.97522 9C2.96782 9 2.96042 9 2.95303 9C2.94563 9 2.93825 9 2.93086 9C2.92348 9 2.9161 9 2.90873 9C2.90136 9 2.89399 9 2.88663 9C2.87927 9 2.87192 9 2.86457 9C2.85722 9 2.84988 9 2.84254 9C2.8352 9 2.82787 9 2.82054 9C2.81322 9 2.8059 9 2.79858 9C2.79127 9 2.78396 9 2.77666 9C2.76935 9 2.76206 9 2.75477 9C2.74747 9 2.74019 9 2.73291 9C2.72563 9 2.71836 9 2.71109 9C2.70383 9 2.69657 9 2.68931 9C2.68206 9 2.67481 9 2.66757 9C2.66033 9 2.65309 9 2.64586 9C2.63864 9 2.63141 9 2.6242 9C2.61698 9 2.60977 9 2.60257 9C2.59537 9 2.58817 9 2.58098 9C2.57379 9 2.56661 9 2.55943 9C2.55225 9 2.54508 9 2.53792 9C2.53076 9 2.5236 9 2.51645 9C2.5093 9 2.50216 9 2.49502 9C2.48788 9 2.48075 9 2.47363 9C2.46651 9 2.45939 9 2.45228 9C2.44518 9 2.43807 9 2.43098 9C2.42389 9 2.4168 9 2.40972 9C2.40264 9 2.39556 9 2.3885 9C2.38143 9 2.37437 9 2.36732 9C2.36027 9 2.35323 9 2.34619 9C2.33915 9 2.33212 9 2.3251 9C2.31808 9 2.31106 9 2.30406 9C2.29705 9 2.29005 9 2.28306 9C2.27606 9 2.26908 9 2.2621 9C2.25512 9 2.24815 9 2.24119 9C2.23423 9 2.22728 9 2.22033 9C2.21338 9 2.20645 9 2.19951 9C2.19258 9 2.18566 9 2.17875 9C2.17183 9 2.16492 9 2.15802 9C2.15112 9 2.14423 9 2.13735 9C2.13047 9 2.12359 9 2.11672 9C2.10986 9 2.103 9 2.09615 9C2.0893 9 2.08245 9 2.07562 9C2.06878 9 2.06196 9 2.05514 9C2.04832 9 2.04151 9 2.03471 9C2.02791 9 2.02112 9 2.01433 9C2.00755 9 2.00077 9 1.994 9C1.98724 9 1.98048 9 1.97373 9C1.96698 9 1.96023 9 1.9535 9C1.94677 9 1.94004 9 1.93333 9C1.92661 9 1.9199 9 1.91321 9C1.90651 9 1.89982 9 1.89314 9C1.88646 9 1.87978 9 1.87312 9C1.86646 9 1.8598 9 1.85316 9C1.84651 9 1.83988 9 1.83325 9C1.82662 9 1.82001 9 1.8134 9C1.80679 9 1.80019 9 1.7936 9C1.78701 9 1.78043 9 1.77386 9C1.76728 9 1.76072 9 1.75417 9C1.74761 9 1.74107 9 1.73454 9C1.728 9 1.72148 9 1.71496 9C1.70845 9 1.70194 9 1.69544 9C1.68895 9 1.68246 9 1.67598 9C1.6695 9 1.66304 9 1.65658 9C1.65012 9 1.64367 9 1.63723 9C1.63079 9 1.62437 9 1.61795 9C1.61153 9 1.60512 9 1.59872 9C1.59232 9 1.58593 9 1.57955 9C1.57317 9 1.5668 9 1.56044 9C1.55408 9 1.54773 9 1.54139 9C1.53505 9 1.52872 9 1.52241 9C1.51609 9 1.50978 9 1.50348 9C1.49718 9 1.49089 9 1.48461 9C1.47834 9 1.47207 9 1.46581 9C1.45955 9 1.45331 9 1.44707 9C1.44083 9 1.43461 9 1.42839 9C1.42218 9 1.41597 9 1.40978 9C1.40358 9 1.3974 9 1.39122 9C1.38505 9 1.37889 9 1.37274 9C1.36658 9 1.36044 9 1.35431 9C1.34818 9 1.34206 9 1.33595 9C1.32985 9 1.32375 9 1.31766 9C1.31157 9 1.3055 9 1.29943 9C1.29337 9 1.28731 9 1.28127 9C1.27523 9 1.2692 9 1.26318 9C1.25715 9 1.25115 9 1.24515 9C1.23915 9 1.23316 9 1.22719 9C1.22121 9 1.21525 9 1.20929 9C1.20334 9 1.1974 9 1.19147 9C1.18554 9 1.17962 9 1.17371 9C1.1678 9 1.16191 9 1.15602 9C1.15014 9 1.14426 9 1.1384 9C1.13254 9 1.12669 9 1.12085 9C1.11502 9 1.10919 9 1.10338 9C1.09756 9 1.09176 9 1.08597 9C1.08018 9 1.0744 9 1.06863 9C1.06286 9 1.05711 9 1.05136 9C1.04562 9 1.03989 9 1.03417 9C1.02845 9 1.02274 9 1.01705 9C1.01135 9 1.00567 9 1 9V11ZM11 10V7H9V10H11ZM2 10V7H0V10H2Z" fill="#888AF7"/>
<path d="M5.5 1L5.5 4.75" stroke="#888AF7" stroke-width="2" stroke-linecap="round" stroke-linejoin="round"/>
<path d="M7.75 3.58301L5.5 5.33301L3.25 3.58301" stroke="#888AF7" stroke-width="2" stroke-linecap="round" stroke-linejoin="round"/>
</svg>
