<svg width="22" height="28" viewBox="0 0 22 28" fill="none" xmlns="http://www.w3.org/2000/svg">
<path opacity="0.27" d="M7.0667 6.43622C5.44095 7.55469 4.57348 9.18726 4.4643 11.3339L0.477673 10.3381C0.397557 8.9043 0.728092 7.47929 1.46928 6.06307C2.21046 4.64685 3.28408 3.45508 4.69014 2.48776C6.84316 1.00654 8.90926 0.410509 10.8884 0.699664C12.8964 0.936621 14.4672 1.87896 15.6008 3.52668C16.5983 4.97668 17.1214 6.34854 17.1698 7.64227C17.2032 8.91403 16.9908 10.3225 16.5326 11.8677C16.4763 12.0683 16.3988 12.332 16.3 12.6589C16.2232 12.9707 16.1567 13.2269 16.1004 13.4274C16.051 13.5908 15.9879 13.8285 15.9111 14.1402C15.8563 14.4369 15.8227 14.6704 15.8104 14.8407C15.783 14.989 15.7604 15.215 15.7426 15.5185C15.7317 15.785 15.7497 15.9992 15.7964 16.1612C15.8432 16.3233 15.8982 16.5444 15.9614 16.8245C16.0467 17.0896 16.1607 17.3024 16.3036 17.4631C16.4685 17.6086 16.6416 17.8132 16.823 18.0768L13.3854 20.4903C12.6944 19.7681 12.1922 19.0617 11.8788 18.3709C11.5723 17.6431 11.4539 16.883 11.5237 16.0905C11.6004 15.2609 11.6949 14.6456 11.8074 14.2446C11.9268 13.8064 12.1353 13.145 12.4331 12.2605C13.1878 10.2523 13.0815 8.54522 12.1142 7.13916C11.5701 6.34825 10.8125 5.88223 9.84144 5.74108C8.8704 5.59993 7.94549 5.83164 7.0667 6.43622ZM15.8798 25.6686C15.4415 25.0315 15.2977 24.305 15.4485 23.4891C15.6062 22.6362 16.0585 21.9528 16.8055 21.4389C17.4866 20.9704 18.2316 20.83 19.0406 21.0179C19.8564 21.1687 20.4835 21.5627 20.9218 22.1998C21.4206 22.9248 21.6207 23.7097 21.5221 24.5543C21.4083 25.377 21 26.0302 20.2969 26.5139C19.55 27.0278 18.75 27.2059 17.8971 27.0482C17.051 26.8535 16.3786 26.3936 15.8798 25.6686Z" fill="white"/>
</svg>
