<svg width="16" height="30" viewBox="0 0 16 30" fill="none" xmlns="http://www.w3.org/2000/svg">
<path opacity="0.27" d="M7.62171 5.21722C5.66496 4.96193 3.92834 5.59593 2.41187 7.11922L0.113179 3.71322C1.01226 2.59346 2.21083 1.7548 3.70888 1.19724C5.20693 0.63969 6.80212 0.471307 8.49444 0.692094C11.0858 1.03017 13.0207 1.96837 14.2991 3.50668C15.6338 5.02545 16.1718 6.77643 15.9131 8.75962C15.6854 10.5048 15.1571 11.8747 14.3282 12.8691C13.5027 13.8371 12.403 14.7425 11.0291 15.5851C10.8532 15.6967 10.6192 15.8409 10.3272 16.018C10.0616 16.1985 9.84085 16.3445 9.66495 16.456C9.51894 16.5445 9.31314 16.679 9.04756 16.8595C8.80842 17.0434 8.62734 17.1946 8.50432 17.313C8.38475 17.405 8.2169 17.5579 8.00075 17.7718C7.8145 17.9626 7.68458 18.1339 7.61099 18.2856C7.53741 18.4374 7.43048 18.6386 7.29021 18.8892C7.17639 19.1433 7.1189 19.3778 7.11774 19.5928C7.14303 19.8113 7.13497 20.0791 7.09358 20.3964L2.92369 19.8928C2.89268 18.8937 2.99158 18.0326 3.22039 17.3094C3.47909 16.5633 3.89931 15.9189 4.48107 15.3763C5.09271 14.8107 5.57444 14.4163 5.92625 14.1933C6.30795 13.9473 6.90522 13.5949 7.71806 13.1362C9.62196 12.1476 10.6843 10.8071 10.9051 9.11473C11.0293 8.1628 10.7775 7.30973 10.1498 6.55552C9.52212 5.80131 8.67941 5.35521 7.62171 5.21722ZM1.31628 25.4112C1.41633 24.6444 1.79517 24.008 2.4528 23.5022C3.14032 22.9733 3.93361 22.7676 4.83266 22.8849C5.65238 22.9918 6.30021 23.3856 6.77616 24.0662C7.282 24.7239 7.4849 25.4361 7.38486 26.2029C7.27101 27.0755 6.89505 27.7929 6.25696 28.3551C5.62232 28.8908 4.88192 29.1035 4.03576 28.9931C3.13671 28.8758 2.42277 28.4734 1.89393 27.7859C1.39499 27.0754 1.20244 26.2838 1.31628 25.4112Z" fill="white"/>
</svg>
